<?xml version="1.0" standalone="no"?>
<!DOCTYPE svg PUBLIC "-//W3C//DTD SVG 1.1//EN" "http://www.w3.org/Graphics/SVG/1.1/DTD/svg11.dtd" >
<svg xmlns="http://www.w3.org/2000/svg">
<metadata></metadata>
<defs>
<font id="gap_sansbold" horiz-adv-x="350" >
<font-face units-per-em="2048" ascent="1638" descent="-410" />
<missing-glyph horiz-adv-x="500" />
<glyph horiz-adv-x="0" />
<glyph horiz-adv-x="682" />
<glyph unicode=" "  horiz-adv-x="500" />
<glyph unicode="&#x09;" horiz-adv-x="500" />
<glyph unicode="&#xa0;" horiz-adv-x="500" />
<glyph unicode="!" d="M51 78v100l70 67h104l74 -67v-101l-73 -71h-105zM78 388v998h192v-998h-192z" />
<glyph unicode="&#x22;" horiz-adv-x="600" d="M79 1165v248h192v-248h-34v-182h-128v182h-30zM329 1165v248h192v-248h-34v-182h-128v182h-30z" />
<glyph unicode="#" horiz-adv-x="1400" d="M76 311v234h240l63 307h-199v234h247l98 479l190 -57l-87 -422h296l98 479l190 -57l-87 -422h193v-234h-240l-65 -307h203v-234h-249l-99 -482l-191 57l88 425h-295l-99 -482l-191 57l88 425h-192zM516 545h297l63 307h-296z" />
<glyph unicode="$" horiz-adv-x="1242" d="M41 290l169 114l65 -131l25 -38l40 -33l63 -45l50 -30l67 -24l58 -12v510l-205 56l-116 68l-89 92l-53 140l-10 133l19 131l59 127l94 103l141 63l112 21l48 5v239h159v-234l88 -20l77 -23l110 -61l95 -86l40 -43l-135 -167l-31 35l-77 66l-75 41l-54 16l-38 8v-514h2 l122 -28l120 -50l100 -76l63 -90l74 -158l-22 -28v-80l-22 -139l-91 -122l-70 -61l-77 -50l-108 -33v-23h-91v-228h-159v228h-5l-105 22l-99 36l-77 46l-69 53l-63 55l-49 76zM303 1089l5 -66l24 -61l43 -41l76 -44l127 -36v486l-20 -3l-83 -15l-85 -39l-46 -49l-31 -65z M479 1389h258v-5l-50 -45zM737 80l39 7l79 25l47 30l46 37l42 58l11 61v85l-16 34l-36 47l-62 45l-82 35l-68 17v-481z" />
<glyph unicode="%" horiz-adv-x="1492" d="M54 1274l56 143l85 93l95 62l69 -3h105l79 -47l71 -51l78 -114l19 -124v-125l-41 -120l-87 -116l-119 -68h-148l-131 64l-73 104l-54 112zM241 1226l3 -79l22 -47l32 -46l58 -26h61l42 24l38 52l17 46v64l-8 49l-27 41l-35 24l-28 17h-62l-19 1l-30 -19l-41 -46z M345 -126l610 1743l192 -83l-611 -1743zM777 188v131l46 117l90 113l118 60h143l130 -56l75 -99l55 -115l4 -189l-56 -143l-83 -91l-90 -66l-71 -5h-113l-81 55l-68 54l-75 109zM974 212l9 -49l30 -45l39 -32l27 -18h52l18 1l37 25l42 48l23 56l-3 78l-22 46l-29 40l-58 25 h-66l-41 -23l-43 -52l-15 -42v-58z" />
<glyph unicode="&#x26;" horiz-adv-x="1350" d="M32 547l34 169l60 136l84 71l-35 44l-68 121l-27 161l26 175l72 174l158 98l190 39l205 -39l150 -104l95 -100l-129 -177l-80 85l-102 71l-138 27l-129 -27l-74 -45l-31 -76l-15 -97l13 -73l36 -66l64 -78l25 -24h463v237h195v-237h198v-234h-198v-774h-195v186l-32 -40 l-114 -92l-165 -51h-209l-9 22l-86 31l-114 103l-85 151zM231 539l20 -135l43 -78l60 -54l84 -30h106l112 33l92 67l94 90l37 50v296h-473l-72 -36l-57 -51l-27 -59z" />
<glyph unicode="'" d="M79 1165v248h192v-248h-34v-182h-128v182h-30z" />
<glyph unicode="(" horiz-adv-x="500" d="M25 749l19 255l48 261l62 230l132 334l177 -101l-128 -321l-55 -204l-42 -235l-17 -227l8 -253l40 -254l59 -213l65 -184l67 -146l-170 -114l-74 158l-72 205l-63 235l-46 286z" />
<glyph unicode=")" horiz-adv-x="500" d="M43 1718l177 101l132 -334l62 -230l48 -261l19 -255l-10 -288l-46 -286l-63 -235l-72 -205l-74 -158l-170 114l67 146l65 184l59 213l40 254l8 253l-17 227l-42 235l-55 204z" />
<glyph unicode="*" horiz-adv-x="584" d="M19 1079l121 65l-121 65l73 125l125 -66v137h150v-138l125 67l73 -125l-121 -65l121 -65l-73 -125l-125 67v-136h-150v136l-125 -67z" />
<glyph unicode="+" horiz-adv-x="1000" d="M80 626v187h321v290h196v-290h323v-187h-323v-287h-196v287h-321z" />
<glyph unicode="," horiz-adv-x="400" d="M72 -161l71 139l-69 71v100l70 67h104l74 -67v-171h-13l-102 -201z" />
<glyph unicode="-" horiz-adv-x="800" d="M80 633v188h640v-188h-640z" />
<glyph unicode="." horiz-adv-x="400" d="M76 52v99l70 69h104l74 -68v-101l-74 -69h-104z" />
<glyph unicode="/" horiz-adv-x="600" d="M-20 -352l450 2164l190 -56l-450 -2164z" />
<glyph unicode="0" horiz-adv-x="1154" d="M51 753v80l9 107l16 113l20 118l26 102l39 100l59 100l74 83l105 75l108 40l77 6l66 -6l93 -25l89 -58l86 -59l61 -86l42 -83l40 -98l31 -121l10 -110l22 -210l-13 -6v-1l3 -85l-6 -76l-12 -75l-19 -105l-35 -121l-67 -139l-82 -91l-91 -63l-105 -44l-78 -18l-77 10 l-80 14l-66 30l-71 41l-64 62l-50 55l-44 77l-36 93l-26 76l-19 80l-12 88l-9 90l-8 22l161 18h-167zM267 758l4 1l5 -60l12 -68l8 -64l13 -53l20 -61l25 -62l21 -36l26 -29l40 -39l41 -24l35 -16l54 -10l38 -4l32 8l70 30l54 37l40 43l41 85l24 82l15 87l9 57l5 72l-3 79 v108l-8 80l-7 88l-20 77l-28 93l-31 60l-27 40l-49 35l-59 37l-50 13l-34 4l-37 -4l-59 -20l-61 -45l-42 -49l-36 -61l-24 -89l-20 -74l-17 -102l-13 -99l-7 -84v-63z" />
<glyph unicode="1" horiz-adv-x="550" d="M97 1448v138l283 79v-123h103v-1547h-216v1453h-170z" />
<glyph unicode="2" horiz-adv-x="1100" d="M93 87v180l15 61l57 128l88 117l105 98l113 81l103 60l68 43l65 47l47 50l53 89l41 87l7 65l-7 59l-40 114l-80 86l-108 54h-151l-137 -42l-90 -61l-34 -36l-100 135l46 49l122 83l175 52h199l159 -80l124 -133l60 -172l14 -105l-14 -125l-59 -127l-68 -113l-69 -75 l-83 -58l-73 -47l-99 -59l-100 -70l-87 -81l-66 -89l-41 -91l-4 -19v-59h753v-181h-828v85h-76z" />
<glyph unicode="3" horiz-adv-x="1122" d="M52 426l187 128l29 -74l29 -58l53 -77l85 -67l96 -45h94l97 21l87 61l54 87l19 67v89l-10 42l-43 66l-62 63l-141 24h-136v216h140l61 10l83 43l43 48l24 52l10 98l-33 101l-45 56l-61 40l-87 18h-95l-95 -35l-87 -81l-42 -59l-143 188l49 53l125 109l161 60h145l141 -30 l121 -79l104 -131l47 -185v-146l-70 -150l-54 -56l42 -29l93 -143l40 -161v-156l-68 -151l-96 -118l-145 -102l-154 -33h-155l-153 73l-125 97l-80 102l-44 81z" />
<glyph unicode="4" horiz-adv-x="1200" d="M102 681l617 993l93 -81h150v-915h161v-213h-161v-462h-216v462h-535v120zM363 678h383v627z" />
<glyph unicode="5" horiz-adv-x="1093" d="M57 402l202 90l11 -35l25 -64l47 -78l56 -50l72 -46l90 -23l103 11l104 63l60 93l23 120l-9 118l-27 120l-68 78l-83 41l-82 14l-97 -13l-57 -37l-119 -176l-152 140l58 78l-115 1v660h116v131h763v-236h-663v-402l104 66l165 24l137 -24l145 -73l135 -155l52 -144 l15 -205l-41 -213l-120 -186l-185 -112l-175 -17l-151 37l-114 74l-89 80l-73 103l-45 87z" />
<glyph unicode="6" horiz-adv-x="1115" d="M35 693l1 197l30 217l65 218l105 186l187 130l191 18l151 -37l129 -84l88 -107l23 -32l-164 -168l-17 25l-61 72l-73 48l-89 23l-112 -11l-102 -71l-62 -109l-49 -130l-11 -96l38 33l134 60l145 14l131 -14l161 -63l135 -134l66 -192l-4 -197l-34 -167l-92 -183 l-145 -124l-178 -48l-177 23l-175 83l-100 128l-63 137l-49 179zM250 712l18 -134l33 -137l44 -107l49 -62l103 -49l112 -15l101 28l74 62l52 105l20 100l3 135l-33 95l-68 82l-88 35l-89 10l-97 -10l-79 -35l-34 -30l-33 -39l-85 67z" />
<glyph unicode="7" horiz-adv-x="1140" d="M95 1403v235h827v-144l110 -98l-12 -18l-83 -129l-68 -129l-74 -161l-29 -94l-55 -141l-50 -208l-37 -196l-20 -201l-7 -162l-215 13l7 170l23 225l41 219l56 231l41 123l53 138l82 178l80 149h-670z" />
<glyph unicode="8" horiz-adv-x="1031" d="M47 540l37 143l75 144l79 58l-22 19l-75 108l-37 164l4 152l87 180l161 140l201 18l176 -34l153 -92l81 -125l42 -177l-20 -153l-58 -147l-53 -59l100 -113l63 -170l-4 -150l-15 -134l-29 -93l-114 -143l-152 -83l-196 -20l-171 21l-173 125l-121 192zM265 521l9 -113 l59 -93l97 -70l103 -13l138 14l81 45l54 67l36 116v90l-29 40l-55 56l-72 36l-60 17h-211l-49 -21l-45 -42l-37 -70zM320 1173l19 -47l26 -44l67 -62l63 -33l78 -13l25 7l1 5l9 -3l45 12l66 59l35 40l26 64l10 59l-19 99l-25 39l-80 63l-119 8l-114 -11l-75 -65l-36 -94z " />
<glyph unicode="9" horiz-adv-x="1092" d="M33 1008l12 162l39 164l100 178l149 116l179 40l176 -32l172 -93l96 -133l57 -140l42 -182l17 -142l-9 -227l-40 -219l-73 -206l-111 -180l-192 -119l-191 -8l-149 45l-126 90l-85 112l-21 34l170 158l16 -25l58 -106l72 -51l88 -28l112 5l105 66l78 135l42 122l15 96 l-39 -32l-136 -52l-146 -6l-130 21l-159 70l-129 171zM251 1045l25 -102l65 -102l87 -38l88 -15l98 5l80 31l35 27l38 59l35 61l54 -84v50v102l-24 148l-58 109l-46 65l-101 55l-111 19l-102 -21l-76 -59l-60 -101l-24 -130z" />
<glyph unicode=":" horiz-adv-x="400" d="M76 188v98l70 70h104l74 -68v-101l-74 -69h-104zM76 947v100l70 67h104l74 -67v-101l-73 -70h-105z" />
<glyph unicode=";" horiz-adv-x="400" d="M72 -145l71 139l-69 71v100l70 67h104l74 -67v-171h-13l-102 -201zM74 823v101l70 67h104l74 -67v-102l-74 -69h-104z" />
<glyph unicode="&#x3c;" horiz-adv-x="1000" d="M70 804l788 292l71 -174l-590 -219l591 -222l-71 -174l-786 294l39 97z" />
<glyph unicode="=" horiz-adv-x="1000" d="M90 439v187h840v-187h-840zM90 825v187h840v-187h-840z" />
<glyph unicode="&#x3e;" horiz-adv-x="1000" d="M70 477l591 222l-590 219l71 174l788 -292l-42 -106l39 -97l-786 -294z" />
<glyph unicode="?" horiz-adv-x="990" d="M13 1352l54 64l117 75l142 57l143 20l159 -21l147 -80l110 -120l86 -213l-17 -28v-146l-70 -181l-121 -121l-94 -62l-87 -56l-42 -67l-20 -62l-10 -102l-193 23l11 136l41 120l84 135l124 78l75 50l73 73l34 88v107l-34 86l-59 65l-90 49l-107 13l-101 -14l-106 -42 l-77 -50l-33 -39zM292 59l73 84h103l72 -84v-125l-71 -88h-105l-72 88v125z" />
<glyph unicode="@" horiz-adv-x="1900" d="M24 682l59 340l110 249l168 215l229 175l260 78l250 -12l236 -80l158 -118l138 -152l133 -228l78 -229l25 -206l-12 -230l-65 -204l-108 -161l-130 -87l-102 -22l-104 22l-74 58l-54 88l-1 5l-25 -35l-79 -76l-106 -55h-136l-2 -3l-138 51l-115 77l-99 154l-57 205 l-14 194l60 251l87 150l134 124l164 45l162 -29l94 -67l55 -72v166h195v-967l3 -17l8 -16l13 -8l29 -9l34 9l70 47l65 97l43 135l10 171l-19 152l-61 179l-108 186l-110 121l-118 89l-188 62l-199 10l-203 -60l-180 -140l-134 -170l-84 -193l-49 -271l24 -263l87 -231 l128 -182l142 -128l147 -62l123 -27h137l106 16l122 47l85 51l59 51l114 -190l-71 -62l-113 -66l-154 -62l-119 -15v-4h-24l-13 -1v1h-146l-155 35l-191 78l-184 167l-160 228l-110 294zM644 674l10 -124l40 -143l53 -84l62 -42l82 -30h75l46 23l45 43l43 60l18 35l5 10 l16 32l2 -1l13 21l49 -39v416l-21 -21l-79 105l-97 82l-102 12l-91 -25l-76 -71l-52 -89z" />
<glyph unicode="A" horiz-adv-x="1254" d="M12 73l504 1611l125 -54l126 54l504 -1611l-203 -87l-170 517h-517l-166 -517zM404 598l110 139h327l-200 703z" />
<glyph unicode="B" horiz-adv-x="1191" d="M99 125v1415h107v131h523l109 -27l96 -63l69 -69l61 -81l31 -100l19 -97l-48 -13l51 -15v-52l-34 -153l-85 -120l39 -33l63 -98l49 -114l17 -128l1 -113l-45 -117l-68 -137l-102 -107l-132 -40h-614v131h-107zM315 138l71 92h407l56 16l37 39l45 89l20 76l-1 36l-9 74 l-24 55l-33 50l-49 45l-47 22h-70h-16h-387v-594zM315 876l71 92h316h16h11l56 24l56 48l46 64l14 84v-2l-1 76l-24 57l-22 29l-42 42l-49 32l-55 14h-393v-560z" />
<glyph unicode="C" horiz-adv-x="1268" d="M36 859l45 231l38 150l73 132l89 111l107 101l164 71l135 12l129 -23l119 -29l112 -83l112 -123l65 -119l19 -38l-184 -136l-18 36l-48 88l-77 110l-62 46l-77 19l-97 15l-83 -7l-103 -44l-67 -64l-70 -86l-40 -101l-25 -98l-17 -120v-72l8 -140l22 -117l29 -99l51 -100 l59 -64l62 -48l90 -37l109 -7l110 14l93 54l83 85l38 106l29 60l187 -131l-29 -59l-55 -117l-135 -140l-151 -85l-164 -23l-158 11l-142 59l-99 76l-91 99l-68 121l-53 142l-31 162l-9 174v25h-24z" />
<glyph unicode="D" horiz-adv-x="1296" d="M101 127v1415h107v131h463l131 -18l128 -60l97 -85l100 -132l74 -155l51 -189l25 -230h-13v-46l-26 -188l-52 -144l-93 -186l-127 -121l-129 -82l-117 -35l-48 -6h-464v131h-107zM317 140l70 92h273l22 2l78 23l87 55l81 77l65 131l36 99l19 161v94l-9 108l-36 160 l-51 107l-70 91l-57 50l-75 36l-90 12h-343v-1298z" />
<glyph unicode="E" horiz-adv-x="1125" d="M98 123v1415h109v131h773v-235h-666v-560l72 92h494v-236h-566v-594l72 92h647v-236h-826v131h-109z" />
<glyph unicode="F" horiz-adv-x="1121" d="M101 -6v1546h108v131h773v-235h-666v-560l70 92h497v-236h-567v-738h-215z" />
<glyph unicode="G" horiz-adv-x="1338" d="M38 823l45 270l38 150l72 132l90 111l106 101l164 71l136 12l129 -23l118 -27l112 -84l113 -124l64 -119l20 -37l-184 -137l-19 54l-48 90l-76 85l-63 46l-77 19l-97 17l-82 -8l-103 -45l-68 -63l-65 -102l-44 -80l-25 -99l-16 -120v-112l7 -104l22 -118l28 -103l52 -96 l58 -64l62 -48l90 -37l109 -7l110 14l93 54l89 90l56 118v227h-370v235h483v-131h103v-415l-112 -185l-130 -134l-152 -85l-164 -23l-157 11l-143 58l-98 76l-92 100l-68 121l-53 141l-31 162l-10 135v30h-22z" />
<glyph unicode="H" horiz-adv-x="1243" d="M99 -8v1677h216v-795l70 92h562v703h216v-1677h-216v738h-632v-738h-216z" />
<glyph unicode="I" horiz-adv-x="443" d="M100 -8v1677h216v-1677h-216z" />
<glyph unicode="J" horiz-adv-x="1072" d="M44 244l153 183l32 -58l77 -90l56 -41l68 -9l100 5l60 23l59 68l37 106l2 13v1228h216v-1248l-11 -79l-71 -155l-118 -136l-136 -53l-144 -7l-133 17l-116 84l-97 108z" />
<glyph unicode="K" horiz-adv-x="1140" d="M95 -8v1676h216v-797l510 802l161 -138l-394 -616l504 -821l-166 -138l-464 750l-78 -129l-73 87v-676h-216z" />
<glyph unicode="L" horiz-adv-x="1126" d="M104 123v1546h218v-1533l71 91h638v-235h-818v131h-109z" />
<glyph unicode="M" horiz-adv-x="1660" d="M98 -8v1676h216v-91l109 90l409 -1436l409 1436l107 -90v91h216v-1676h-216v1259l-375 -1277l-141 59l-141 -59l-377 1281v-1263h-216z" />
<glyph unicode="N" horiz-adv-x="1241" d="M99 -8v1677h216v-191l71 90l561 -1129v1230h216v-1677l-215 -1l-2 177l-75 -86l-556 1118v-1208h-216z" />
<glyph unicode="O" horiz-adv-x="1348" d="M40 863l45 231l38 151l72 132l90 110l106 101l164 72l136 12l129 -23l118 -28l112 -83l112 -124l26 -48h1l66 -121l38 -152l21 -170v-213h-4l-3 -49l-31 -164l-29 -76l3 -3l-27 -60l-1 1l-3 -4l-55 -118l-134 -138l-152 -86l-164 -23l-158 12l-142 59l-98 75l-92 99 l-68 121l-54 141l-31 164l-11 172v30h-20zM276 867l9 -194l24 -118l36 -97l43 -77l59 -64l62 -46l90 -38l109 -8l110 16l93 52l83 87l38 80l8 17l29 78l22 118l7 200v55l-16 132l-22 90l-16 33l-48 87l-77 84l-62 47l-77 18l-97 17l-83 -7l-102 -45l-68 -65l-66 -80l-44 -80 l-26 -100l-18 -119v-73z" />
<glyph unicode="P" horiz-adv-x="1200" d="M100 -8v1546h109v131h578l101 -25l93 -54l82 -93l65 -117l23 -108l-104 -33h109v-89l-43 -170l-91 -98l-122 -98l-79 -27h-45h-58h-21h-381v-765h-216zM316 900l69 90h312h21h58h13l18 6l71 48l41 64l21 80v60l-12 50l-31 56l-39 44l-40 22l-53 14h-449v-534z" />
<glyph unicode="Q" horiz-adv-x="1433" d="M48 859l45 230l38 150l72 132l90 111l107 102l163 71l136 12l129 -23l118 -29l113 -83l112 -123l26 -48h1l66 -122l38 -150l45 -230h-21v-155h-8l-3 -49l-31 -163l-29 -77l3 -2l-26 -60l-2 1l-2 -5l-18 -37l161 -201l-155 -180l-153 189l-25 -27l-152 -86l-164 -23 l-157 12l-143 59l-98 50l-91 100l-69 145l-53 142l-31 163l-9 173v31h-23zM287 867l8 -200l22 -116l37 -99l43 -75l59 -65l61 -47l90 -37l109 -9l110 16l93 53l84 86l38 81l8 16l30 80l22 116l10 205v65l-19 121l-23 91l-17 33l-47 87l-77 75l-62 47l-78 22l-97 17l-82 -7 l-103 -40l-68 -63l-65 -82l-44 -80l-25 -100l-17 -119v-72z" />
<glyph unicode="R" horiz-adv-x="1143" d="M97 -8v1546h109v131h510h69l100 -25l94 -54l82 -92l64 -118l24 -108l-105 -32h110v-90l-44 -169l-91 -99l-122 -98l-8 -2l241 -700l-199 -102l-268 777h-350v-765h-216zM313 890l70 91h312h21h58h13l17 6l72 66l41 57l21 79v59l-12 50l-32 56l-38 44l-40 22l-53 14h-47 h-403v-544z" />
<glyph unicode="S" horiz-adv-x="1208" d="M48 407l187 130l28 -60l49 -83l36 -32l58 -46l45 -30l62 -24l67 -15h93l74 16l73 24l43 28l40 36l38 54l9 82v33l-15 30l-31 45l-55 38l-77 34l-100 26l-104 25l-200 61l-111 47l-92 96l-56 148l-10 141l20 138l60 136l97 109l135 65l104 23l91 11h102l90 -24l74 -23 l106 -64l98 -89l23 -26l-148 -188l-31 56l-56 50l-68 41l-49 16l-62 15h-68l-72 -8l-74 -16l-77 -37l-41 -45l-27 -62l-9 -64l5 -88l21 -56l37 -40l67 -43l172 -53l97 -24l117 -29l114 -51l103 -57l65 -95l77 -145l-27 -32v-78l-21 -148l-92 -131l-72 -63l-77 -52l-99 -33 v-26h-245l-100 24l-95 36l-74 52l-68 54l-64 58l-50 79z" />
<glyph unicode="T" horiz-adv-x="1183" d="M102 1434v235h998v-235h-391v-1442h-217v1442h-390z" />
<glyph unicode="U" horiz-adv-x="1251" d="M100 568v1104h216v-1088l15 -110l36 -98l32 -52l52 -42l53 -34l66 -17h82l97 11l81 38l50 58l38 70l23 87l10 97v1080h216v-1092l-14 -138l-38 -141l-67 -125l-99 -112l-147 -73l-140 -15h-223v27l-12 4l-88 56l-93 77l-68 112l-56 152z" />
<glyph unicode="V" horiz-adv-x="1242" d="M17 1591l204 85l409 -1443l409 1443l204 -85l-474 -1601l-139 59l-139 -59z" />
<glyph unicode="W" horiz-adv-x="1692" d="M6 1601l210 63l265 -1434l267 1434l132 -40l133 40l266 -1434l267 1434l209 -63l-341 -1611l-136 40l-136 -39l-262 1445l-263 -1446l-136 40l-136 -39z" />
<glyph unicode="X" horiz-adv-x="1148" d="M53 1532l180 143l348 -653l349 653l180 -143l-399 -720l395 -687l-180 -143l-345 620l-344 -620l-180 143l395 687z" />
<glyph unicode="Y" horiz-adv-x="1142" d="M47 1528l180 143l349 -630l348 630l181 -143l-419 -720v-816h-218v816z" />
<glyph unicode="Z" horiz-adv-x="1204" d="M98 151l734 1283h-655v235h896v-162l50 -41l-711 -1240l70 2h642v-236h-911v69z" />
<glyph unicode="[" horiz-adv-x="550" d="M78 -304v2024h75v90h319v-234h-199v-1736h199v-234h-319v90h-75z" />
<glyph unicode="\" horiz-adv-x="600" d="M-32 1800l196 59l468 -2256l-196 -58z" />
<glyph unicode="]" horiz-adv-x="550" d="M79 -168h199v1736h-199v234h319v-90h75v-2024h-75v-90h-319v234z" />
<glyph unicode="^" horiz-adv-x="1082" d="M82 907l364 596l95 -83l95 83l364 -596l-157 -138l-302 494l-302 -494z" />
<glyph unicode="_" horiz-adv-x="600" d="M-23 -207h646v-236h-646v236z" />
<glyph unicode="`" horiz-adv-x="1000" d="M322 1641l183 85l130 -407l-182 -85z" />
<glyph unicode="a" horiz-adv-x="993" d="M43 387l42 133l67 98l102 47l121 30h354l-1 12l-31 88l-58 91l-65 30l-88 8l-73 -17l-71 -57l-71 -69l-21 -22l-143 187l28 31l92 90l117 68l129 32l149 -15l139 -65l116 -152l61 -169l5 -126v-651h-212v125l-59 -49l-102 -59l-134 -23l-133 23l-118 60l-82 90l-47 125z M252 358l11 -54l15 -19l23 -26l60 -30l75 -13l72 12l59 19l70 39l26 41l68 -89v265h-335l-56 -14l-42 -35l-34 -34z" />
<glyph unicode="b" horiz-adv-x="1099" d="M100 -12v1646h214v-610l68 82l107 58h165l178 -92l106 -120l83 -185l28 -126v-138l-57 -186l-92 -157l-134 -116l-150 -60l-155 32l-124 84l-23 22v-134h-214zM314 282l69 89l14 -25l60 -60l76 -60l66 -14l70 38l78 67l57 97l33 89v113l-18 88l-52 114l-54 62l-103 54 h-80l-89 -35l-58 -84l-69 86v-619z" />
<glyph unicode="c" horiz-adv-x="1026" d="M61 480v168l44 162l78 160l101 98l135 77l164 17l139 -33l116 -62l100 -114l42 -71l-172 -150l-31 77l-59 67l-60 34l-86 19l-97 -10l-77 -44l-51 -49l-46 -95l-27 -99l-4 -121l32 -122l49 -77l75 -70l64 -22l116 -9l98 33l47 44l56 121l174 -146l-74 -127l-105 -100 l-175 -58l-175 14l-124 44l-129 119l-95 149z" />
<glyph unicode="d" horiz-adv-x="1094" d="M45 487l7 123l21 122l83 218l105 121l179 94h165l153 -73l24 -30v579h212v-1652h-212v132l-24 -23l-125 -84l-155 -31l-151 60l-134 115l-91 157zM259 522l32 -110l56 -97l78 -66l70 -29l66 14l76 50l60 60l16 26l69 -88v632l-63 -80l-19 21l-63 43l-73 36h-80l-103 -55 l-54 -61l-51 -115l-17 -84v-97z" />
<glyph unicode="e" horiz-adv-x="1044" d="M45 505l1 163l42 157l74 148l146 143l158 57l118 1l145 -58l126 -106l88 -143l43 -137l14 -99l-86 -17l6 -84l-658 -43l15 -90l55 -83l60 -50l90 -41l76 -1l92 21l75 58l49 53l37 51l156 -152l-44 -57l-70 -75l-122 -94l-153 -35h-10h-105l-20 2l-151 67l-123 103 l-83 188zM273 583l72 85l419 28l-9 74l-49 79l-74 57l-82 32h-51l-89 -32l-85 -78l-42 -108l-10 -57v-80z" />
<glyph unicode="f" horiz-adv-x="641" d="M54 925v235h164v254l65 147l129 69l126 6l68 -9l-23 -254l-53 32l-68 12l-25 -14l-7 -28v-215h163v-235h-163v-936h-212v936h-164z" />
<glyph unicode="g" horiz-adv-x="1093" d="M40 547l18 177l71 192l102 136l136 96l175 20l161 -42l75 -67v108h212v-1137v-118l-28 -148l-75 -128l-96 -88l-115 -52l-137 -14l-110 23l-116 59l-87 72l-65 66l139 193l55 -72l60 -60l74 -37l60 -13l80 7l58 28l45 40l32 81l14 72v122v33l-33 -34l-143 -71h-159 l-127 42l-119 106l-79 121l-59 149zM254 552l11 -95l35 -87l47 -70l64 -58l62 -20h86l80 21l70 55l69 -87v697l-70 -89l-19 24l-77 71l-83 20l-95 -10l-67 -47l-58 -77l-43 -116z" />
<glyph unicode="h" horiz-adv-x="1098" d="M99 -9v1645h213v-621l82 102l79 49h183l165 -87l105 -122l69 -156l2 -110v-700h-212v721l-1 47l-30 67l-54 63l-88 46h-87l-103 -64l-42 -56l-68 87v-911h-213z" />
<glyph unicode="i" horiz-adv-x="446" d="M78 1460v120l85 84h126l88 -84v-120l-88 -87h-126zM119 -13v1176h212v-1176h-212z" />
<glyph unicode="j" horiz-adv-x="375" d="M-78 -479l29 253l35 -30l39 -15l43 6l18 15l12 50v66h213v-107l-58 -151l-112 -84l-112 -17l-70 8zM48 1471v121l85 83h126l88 -83v-121l-88 -87h-126zM98 -134v1289h213v-1289h-213z" />
<glyph unicode="k" horiz-adv-x="924" d="M101 -12v1653h212v-947l307 508l149 -154l-251 -409l355 -547l-156 -130l-290 484l-45 -75l-69 88v-471h-212z" />
<glyph unicode="l" horiz-adv-x="414" d="M101 -14v1653h212v-1653h-212z" />
<glyph unicode="m" horiz-adv-x="1588" d="M97 -13v1176h212v-133l79 91l91 42l158 -5l128 -84l50 -69l78 91l180 79l169 -34l162 -112l75 -176l11 -211v-655h-212v780l-3 30l-31 73l-75 52l-76 14l-85 -36l-40 -55l-69 88v-264v-682h-214v168v541v63l-16 81l-39 57l-59 24l-64 9l-88 -26l-40 -59l-70 88v-946h-212 z" />
<glyph unicode="n" horiz-adv-x="1096" d="M96 -12v1176h213v-166l63 89l65 58l163 20l151 -41l132 -97l81 -150l34 -162v-727h-212v716l-17 81l-40 74l-64 64l-78 20l-91 -11l-67 -51l-52 -60l-68 88v-921h-213z" />
<glyph unicode="o" horiz-adv-x="1096" d="M45 583l28 186l89 185l161 158l198 50h77l127 -37l160 -101l104 -168l63 -225l-12 -153l-51 -181l-90 -146l-154 -126l-194 -43l-174 28l-138 94l-124 173l-56 200zM259 571l9 -65l35 -125l73 -102l70 -47l100 -16l117 26l87 71l48 78l31 113l8 93l-39 165l-55 88l-94 59 l-77 23h-29l-125 -32l-92 -90l-50 -106z" />
<glyph unicode="p" horiz-adv-x="1095" d="M98 -487v1646h214v-99l7 7l153 92h144l143 -39l136 -119l92 -150l56 -222v-167l-83 -250l-133 -151l-148 -78h-189l-168 76l-10 11v-557h-214zM312 218l72 98l55 -63l90 -45h105l73 44l73 83l49 176v79l-35 168l-49 83l-76 66l-77 22h-69l-85 -40l-51 -48l-8 -5l-67 88 v-706z" />
<glyph unicode="q" horiz-adv-x="1092" d="M48 462v168l61 222l94 149l136 117l141 41h144l153 -92l3 -5v97h214v-1646h-214v554l-6 -8l-168 -76h-189l-146 78l-135 151zM262 488l54 -152l75 -84l72 -38h104l92 40l52 62l69 -102v730l-66 -96l-58 46l-82 34h-69l-76 -21l-76 -66l-51 -83l-40 -169v-101z" />
<glyph unicode="r" horiz-adv-x="731" d="M101 -11v1176h212v-100l140 80l106 20l94 -10l76 -26l-59 -245l-58 54l-49 11l-64 -7l-80 -63l-40 -52l-66 88v-926h-212z" />
<glyph unicode="s" horiz-adv-x="999" d="M52 277l171 152l35 -83l31 -40l69 -49l80 -29l76 -9l77 9l70 28l59 45l17 51v20l-15 46l-26 24l-105 41l-153 20l-101 36l-65 25l-72 49l-69 57l-32 72v132l56 113l80 96l136 73l157 19l142 -19l132 -69l60 -54l30 -36l-149 -181l-19 43l-29 30l-81 42l-87 12l-100 -12 l-69 -37l-34 -41l-13 -50v-10l2 -7l23 -31l22 -16l44 -16l86 -30l184 -44l141 -51l88 -79l50 -88l-3 -169l-82 -127l-113 -87l-117 -45l-123 -16l-117 14l-124 46l-117 83l-61 78z" />
<glyph unicode="t" horiz-adv-x="650" d="M48 923v236h163v242h212v-242h164v-236h-164v-597l8 -51l11 -18l22 -15h11l93 21l41 -249l-112 -28l-90 -1l-118 84l-60 114l-18 121v619h-163z" />
<glyph unicode="u" horiz-adv-x="1097" d="M97 467v696h212v-703l8 -65l23 -57l49 -65l68 -52l51 -7l82 10l49 23l55 61l21 31l71 -80v904h213v-1176h-213v102l-34 -38l-113 -53l-134 -15l-121 16l-132 101l-90 118l-51 128z" />
<glyph unicode="v" horiz-adv-x="947" d="M16 1078l201 84l256 -945l256 945l201 -84l-329 -1096l-128 54l-128 -54z" />
<glyph unicode="w" horiz-adv-x="1341" d="M8 1099l207 61l160 -945l163 947l138 -42l131 39l157 -944l162 947l206 -62l-237 -1117l-131 39l-132 -39l-161 943l-164 -943l-132 39l-132 -39z" />
<glyph unicode="x" horiz-adv-x="940" d="M59 131l283 448l-279 437l172 150l239 -405l239 405l171 -150l-279 -437l284 -448l-172 -150l-243 415l-243 -415z" />
<glyph unicode="y" horiz-adv-x="933" d="M4 1042l200 84l255 -945l258 952l200 -84l-342 -1170l-47 -121l-61 -114l-96 -99l-95 -56l-100 -16l-82 8l-75 31l68 241l51 -45l33 -4l43 7l40 24l51 53l37 67l57 190l-86 -53z" />
<glyph unicode="z" horiz-adv-x="1010" d="M106 156l505 782h-435v230h600v-125l116 -98l-468 -721h487v-232h-666v43z" />
<glyph unicode="{" horiz-adv-x="750" d="M80 610v234h97l35 38l48 78l11 65v463l37 152l107 118l122 48h133v-234h-102l-52 -19l-37 -41l-13 -56v-452l-22 -140l-86 -140l-2 -2l53 -52l44 -111l21 -131v-465l6 -58l27 -51l14 -17l38 -13l51 -4h60v-234h-67l-78 5l-107 39l-64 77l-62 117l-14 123v461l-12 78 l-15 37l-46 46l-33 41h-92z" />
<glyph unicode="|" d="M77 -398v2204h196v-2204h-196z" />
<glyph unicode="}" horiz-adv-x="750" d="M80 -180h56l51 4l39 13l14 18l28 50l7 59v464l19 131l44 111l53 52l-1 3l-86 139l-20 140v450l-15 57l-38 42l-53 19h-98v234h129l123 -48l109 -118l38 -152v-463l9 -66l46 -77l36 -38h100v-234h-96l-32 -41l-46 -46l-15 -37l-11 -78v-461l-15 -123l-62 -118l-65 -76 l-106 -39l-80 -6h-62v235z" />
<glyph unicode="~" horiz-adv-x="1001" d="M21 550l1 101l33 186l123 101l144 28l115 -40l105 -71l86 -57l52 -21h30l23 12l24 35l20 51l4 19v62h195v-92l-13 -67l-40 -102l-73 -101l-100 -51h-103l-97 41l-103 67l-86 59l-50 16l-58 -12l-23 -19l-13 -72l-2 -77z" />
<glyph unicode="&#xa1;" d="M51 1022v101l73 71h105l70 -72v-100l-70 -67h-104zM51 1022v101l73 71h105l70 -72v-100l-70 -67h-104zM80 -186v998h192v-998h-192zM80 -186v998h192v-998h-192z" />
<glyph unicode="&#xa2;" horiz-adv-x="973" d="M35 580v256l5 23l62 177l137 187l179 99l34 -1v238h150v-246l25 -1l170 -86l103 -118l64 -101l-157 -139l-52 85l-67 73l-86 44v-760l76 37l52 48l68 114l159 -136l-84 -141l-96 -90l-155 -75h-20v-233h-150v236l-137 43l-143 116l-90 163zM230 614l31 -121l53 -96 l84 -68l54 -17v772l-93 -53l-89 -120l-40 -114v-183z" />
<glyph unicode="&#xa3;" horiz-adv-x="1200" d="M8 -7l78 89l80 93l70 123l47 139v61l-16 108h-187v180h148l-20 85l-29 180l18 161l78 179l141 139l231 37l204 -70l140 -106l61 -76l-137 -165l-47 57l-99 74l-137 49l-134 -23l-69 -67l-44 -100l-9 -80l21 -135l35 -139h491v-180h-444v-216l-71 -204l-2 -5l111 -19 l128 -54l118 -47l77 -1l59 48l44 76l22 69l2 15v90h195v-127l2 -2l-2 -8v-8h-3l-40 -138l-82 -137l-138 -113l-169 2l-148 59l-113 48l-116 21l-81 -18l-63 -38l-66 -76z" />
<glyph unicode="&#xa4;" horiz-adv-x="2000" />
<glyph unicode="&#xa5;" horiz-adv-x="1100" />
<glyph unicode="&#xa6;" d="M77 -408v1016h196v-1016h-196zM77 792v1016h196v-1016h-196z" />
<glyph unicode="&#xa8;" horiz-adv-x="800" d="M77 1163v80l72 53h103l75 -53v-81l-75 -56h-104zM475 1163v80l72 53h103l73 -53v-80l-72 -57h-105z" />
<glyph unicode="&#xa9;" horiz-adv-x="1300" d="M26 618h1v151l54 246l87 156l110 135l116 78l158 64l15 -9h71l109 -6l188 -71l126 -108l116 -167l67 -186l29 -213l-29 -230l-79 -190l-124 -159l-151 -109l-160 -58l-186 12l-172 57l-117 101l-108 130l-88 179l-27 163h-5v27zM199 623l22 -129l61 -127l84 -98l81 -71 l125 -41l137 -9l112 40l112 82l91 115l56 136l21 167l-21 154l-50 137l-86 124l-86 74l-141 53l-85 5h-74l-96 -39l-80 -54l-81 -102l-62 -110l-40 -187v-120zM301 623l40 200l20 76l61 62l41 47l53 46l81 32l67 5l60 -10l57 -12l57 -39l55 -56l32 -52l22 -40l-159 -110 l-18 34l-16 27l-23 24l-15 9l-24 5l-35 6l-25 -2l-57 -12l-18 -28l-24 -25l-10 -18l-5 -23l-5 -36v-48l2 -48l5 -31l11 -25l8 -15l44 -18l22 -14l27 -11l36 -2l35 5l27 14l23 22l10 20l26 48l142 -122l-15 -47l-27 -30l-66 -63l-74 -38l-75 -23l-76 4l-67 26l-51 22l-47 47 l-33 54l-45 63l-15 73l-9 27h-30z" />
<glyph unicode="&#xab;" horiz-adv-x="921" d="M36 665l53 37l-53 38l344 460l158 -110l-290 -388l294 -387l-158 -109zM379 740l345 460l158 -110l-290 -388l293 -387l-157 -109l-348 459l53 37z" />
<glyph unicode="&#xac;" horiz-adv-x="1000" d="M77 624v187h782v-68h62v-406h-195v287h-649z" />
<glyph unicode="&#xad;" horiz-adv-x="800" d="M80 633v188h640v-188h-640z" />
<glyph unicode="&#xae;" horiz-adv-x="1288" d="M22 626h1v151l54 246l87 156l110 135l116 78l158 64l15 -9h71l109 -6l188 -71l127 -108l116 -167l67 -187l28 -212l-28 -230l-79 -190l-124 -158l-151 -110l-161 -58l-185 12l-172 58l-118 100l-108 130l-87 179l-29 165h-4v25zM194 637l23 -135l62 -127l83 -98l81 -71 l126 -41l136 -8l113 39l111 82l92 115l56 136l21 167l-21 154l-50 138l-86 123l-86 74l-142 53l-85 5h-73l-96 -39l-81 -54l-81 -102l-62 -110l-41 -187v-114zM380 318v771h339l78 -23l55 -46l36 -52l30 -64l15 -94l-16 -81l-41 -78l-52 -54l88 -211l-141 -84l-107 260h-114 v-244h-170zM550 752h153l33 5l18 18l15 29l2 12l-4 22l-10 23l-13 18l-14 12l-30 9h-150v-148z" />
<glyph unicode="&#xb0;" horiz-adv-x="700" d="M30 1074v104l43 94l86 91l111 48h136l130 -46l74 -79l55 -91l5 -153l-57 -114l-83 -73l-89 -52l-69 -5h-107l-78 44l-64 44l-71 88zM215 1094l9 -41l29 -35l36 -25l27 -15h51l16 1l34 19l43 39l22 44l-3 63l-21 36l-30 31l-55 21h-63l-40 -18l-39 -42l-16 -34v-44z" />
<glyph unicode="&#xb1;" horiz-adv-x="1000" d="M77 0v188h846v-188h-846zM77 624v188h325v288h196v-288h325v-188h-325v-288h-196v288h-325z" />
<glyph unicode="&#xb4;" horiz-adv-x="400" d="M24 1306l141 421l181 -87l-140 -421z" />
<glyph unicode="&#xb5;" horiz-adv-x="1100" />
<glyph unicode="&#xb6;" horiz-adv-x="1001" d="M24 885v299l217 203h604v-75h75v-1500h-195v1388h-103v-1388h-195v863h-187z" />
<glyph unicode="&#xb7;" horiz-adv-x="400" d="M-22 516v178l128 123h188l128 -123v-178l-128 -127h-188z" />
<glyph unicode="&#xb8;" horiz-adv-x="522" d="M24 -377l61 101l22 -19l56 -23l49 -16l51 3l42 12l24 20l22 40l1 32l-20 37l-18 20l-54 -2l-65 -14l-44 -37l-76 79l134 316l80 -57l-89 -206l59 21l80 2l72 -41l45 -81l-2 -109l-50 -89l-56 -46l-71 -21l-77 -3l-68 22l-73 29z" />
<glyph unicode="&#xbb;" horiz-adv-x="921" d="M36 1088l157 111l348 -460l-53 -38l54 -37l-345 -461l-158 110l290 388zM379 1088l158 111l348 -460l-53 -38l53 -37l-344 -461l-158 110l290 388z" />
<glyph unicode="&#xbf;" horiz-adv-x="990" d="M19 66l17 28v146l70 181l121 121l94 62l87 56l42 67l20 62l10 102l193 -23l-11 -136l-41 -120l-84 -135l-124 -78l-75 -50l-73 -73l-34 -88v-107l34 -86l59 -65l90 -49l107 -13l101 14l106 42l77 50l33 39l139 -165l-54 -64l-117 -75l-142 -57l-143 -20l-159 21l-147 80 l-110 120zM450 1141v125l71 88h105l72 -88v-125l-73 -84h-103z" />
<glyph unicode="&#xc0;" horiz-adv-x="1254" d="M12 73l504 1611l125 -54l126 54l504 -1611l-203 -87l-170 517h-517l-166 -517zM404 598l110 139h327l-200 703zM500 2125l183 85l130 -407l-182 -85z" />
<glyph unicode="&#xc1;" horiz-adv-x="1254" d="M12 73l504 1611l125 -54l126 54l504 -1611l-203 -87l-170 517h-517l-166 -517zM404 598l110 139h327l-200 703zM466 1786l141 421l181 -87l-140 -421z" />
<glyph unicode="&#xc2;" horiz-adv-x="1254" d="M12 73l504 1611l125 -54l126 54l504 -1611l-203 -87l-170 517h-517l-166 -517zM383 1947l206 372l56 -45l56 45l206 -372l-124 -99l-138 249l-138 -249zM404 598l110 139h327l-200 703z" />
<glyph unicode="&#xc3;" horiz-adv-x="1254" d="M-542 1559q0 256 171 256q77 0 133 -51q56 -52 124 -52t68 103h103q0 -256 -171 -256q-77 0 -133 51q-55 52 -124 52q-68 0 -68 -103h-103zM12 73l504 1611l125 -54l126 54l504 -1611l-203 -87l-170 517h-517l-166 -517zM404 598l110 139h327l-200 703z" />
<glyph unicode="&#xc4;" horiz-adv-x="1254" d="M-140 1852v99l70 69h104l74 -68v-101l-74 -69h-104zM12 73l504 1611l125 -54l126 54l504 -1611l-203 -87l-170 517h-517l-166 -517zM260 1852v99l70 69h104l74 -68v-101l-74 -69h-104zM404 598l110 139h327l-200 703z" />
<glyph unicode="&#xc5;" horiz-adv-x="1254" d="M-454 1749v85l28 78l56 73l73 40h88l85 -37l49 -65l36 -75l3 -124l-37 -94l-54 -60l-59 -42l-45 -4h-70l-51 36l-41 36l-47 71zM-321 1766l4 -27l17 -25l21 -19l14 -9h38l18 14l25 28l13 30l-2 44l-12 26l-16 22l-31 14h-36l-22 -12l-22 -30l-9 -23v-33zM12 73l504 1611 l125 -54l126 54l504 -1611l-203 -87l-170 517h-517l-166 -517zM404 598l110 139h327l-200 703z" />
<glyph unicode="&#xc6;" horiz-adv-x="1800" d="M0 -140l492 1680h1158v-180h-700v-540h600v-180h-600v-600h750v-180h-900v540h-484l-158 -540h-158zM369 580h431v780h-203z" />
<glyph unicode="&#xc7;" horiz-adv-x="1225" d="M45 803l37 262l36 143l68 123l85 107l101 95l154 67l127 11l123 -22l112 -26l104 -78l107 -116l61 -114l20 -38l-127 -94l-19 37l-50 92l-82 90l-70 52l-84 20l-101 17l-90 -8l-112 -48l-73 -70l-69 -85l-49 -88l-27 -108l-18 -123v-158l9 -148l24 -124l39 -104l46 -83 l64 -69l67 -51l98 -41l116 -8l118 16l102 58l91 94l40 86l29 59l128 -90l-28 -59l-52 -112l-127 -129l-142 -82l-112 -14l-55 -117l53 21l93 -7l54 -39l45 -81l-2 -108l-50 -89l-56 -48l-72 -21l-76 -2l-68 22l-73 30l-35 30l60 100l22 -19l57 -23l49 -15l51 1l41 12l25 22 l22 39l1 33l-20 37l-18 19l-54 -1l-65 -15l-44 -37l-76 79l74 176l-75 6l-134 55l-93 71l-86 93l-64 114l-51 135l-29 154l-10 172v62h-15z" />
<glyph unicode="&#xc8;" horiz-adv-x="1125" d="M98 123v1415h109v131h773v-235h-666v-560l72 92h494v-236h-566v-594l72 92h647v-236h-826v131h-109zM371 2121l183 85l130 -407l-182 -85z" />
<glyph unicode="&#xc9;" horiz-adv-x="1125" d="M98 123v1415h109v131h773v-235h-666v-560l72 92h494v-236h-566v-594l72 92h647v-236h-826v131h-109zM393 1786l141 421l181 -87l-140 -421z" />
<glyph unicode="&#xca;" horiz-adv-x="1125" d="M98 123v1415h109v131h773v-235h-666v-560l72 92h494v-236h-566v-594l72 92h647v-236h-826v131h-109zM287 1955l206 372l56 -45l56 45l206 -372l-124 -99l-138 249l-138 -249z" />
<glyph unicode="&#xcb;" horiz-adv-x="1125" d="M98 123v1415h109v131h773v-235h-666v-560l72 92h494v-236h-566v-594l72 92h647v-236h-826v131h-109zM249 1900v99l70 69h104l74 -68v-101l-74 -69h-104zM649 1900v99l70 69h104l74 -68v-101l-74 -69h-104z" />
<glyph unicode="&#xcc;" horiz-adv-x="443" d="M48 2165l183 85l130 -407l-182 -85zM100 -8v1677h216v-1677h-216z" />
<glyph unicode="&#xcd;" horiz-adv-x="443" d="M28 1818l141 421l181 -87l-140 -421zM100 -8v1677h216v-1677h-216z" />
<glyph unicode="&#xce;" horiz-adv-x="443" d="M-59 1979l206 372l56 -45l56 45l206 -372l-124 -99l-138 249l-138 -249zM100 -8v1677h216v-1677h-216z" />
<glyph unicode="&#xcf;" horiz-adv-x="443" d="M-106 1884v99l70 69h104l74 -68v-101l-74 -69h-104zM100 -8v1677h216v-1677h-216zM294 1884v99l70 69h104l74 -68v-101l-74 -69h-104z" />
<glyph unicode="&#xd0;" horiz-adv-x="1250" d="M-100 640v120h200v780h500q249 0 424.5 -216t175.5 -624t-175.5 -624t-424.5 -216h-500v780h-200zM250 40h350q187 0 318.5 163t131.5 497t-131.5 497t-318.5 163h-350v-600h200v-120h-200v-600z" />
<glyph unicode="&#xd1;" horiz-adv-x="1241" d="M-565 1559q0 256 171 256q77 0 133 -51q56 -52 124 -52t68 103h103q0 -256 -171 -256q-77 0 -133 51q-55 52 -124 52q-68 0 -68 -103h-103zM99 -8v1677h216v-191l71 90l561 -1129v1230h216v-1677l-215 -1l-2 177l-75 -86l-556 1118v-1208h-216z" />
<glyph unicode="&#xd2;" horiz-adv-x="1348" d="M40 863l45 231l38 151l72 132l90 110l106 101l164 72l136 12l129 -23l118 -28l112 -83l112 -124l26 -48h1l66 -121l38 -152l21 -170v-213h-4l-3 -49l-31 -164l-29 -76l3 -3l-27 -60l-1 1l-3 -4l-55 -118l-134 -138l-152 -86l-164 -23l-158 12l-142 59l-98 75l-92 99 l-68 121l-54 141l-31 164l-11 172v30h-20zM90 2121l183 85l130 -407l-182 -85zM276 867l9 -194l24 -118l36 -97l43 -77l59 -64l62 -46l90 -38l109 -8l110 16l93 52l83 87l38 80l8 17l29 78l22 118l7 200v55l-16 132l-22 90l-16 33l-48 87l-77 84l-62 47l-77 18l-97 17 l-83 -7l-102 -45l-68 -65l-66 -80l-44 -80l-26 -100l-18 -119v-73z" />
<glyph unicode="&#xd3;" horiz-adv-x="1348" d="M40 863l45 231l38 151l72 132l90 110l106 101l164 72l136 12l129 -23l118 -28l112 -83l112 -124l26 -48h1l66 -121l38 -152l21 -170v-213h-4l-3 -49l-31 -164l-29 -76l3 -3l-27 -60l-1 1l-3 -4l-55 -118l-134 -138l-152 -86l-164 -23l-158 12l-142 59l-98 75l-92 99 l-68 121l-54 141l-31 164l-11 172v30h-20zM95 1786l141 421l181 -87l-140 -421zM276 867l9 -194l24 -118l36 -97l43 -77l59 -64l62 -46l90 -38l109 -8l110 16l93 52l83 87l38 80l8 17l29 78l22 118l7 200v55l-16 132l-22 90l-16 33l-48 87l-77 84l-62 47l-77 18l-97 17 l-83 -7l-102 -45l-68 -65l-66 -80l-44 -80l-26 -100l-18 -119v-73z" />
<glyph unicode="&#xd4;" horiz-adv-x="1348" d="M-7 1683l206 372l56 -45l56 45l206 -372l-124 -99l-138 249l-138 -249zM40 863l45 231l38 151l72 132l90 110l106 101l164 72l136 12l129 -23l118 -28l112 -83l112 -124l26 -48h1l66 -121l38 -152l21 -170v-213h-4l-3 -49l-31 -164l-29 -76l3 -3l-27 -60l-1 1l-3 -4 l-55 -118l-134 -138l-152 -86l-164 -23l-158 12l-142 59l-98 75l-92 99l-68 121l-54 141l-31 164l-11 172v30h-20zM276 867l9 -194l24 -118l36 -97l43 -77l59 -64l62 -46l90 -38l109 -8l110 16l93 52l83 87l38 80l8 17l29 78l22 118l7 200v55l-16 132l-22 90l-16 33l-48 87 l-77 84l-62 47l-77 18l-97 17l-83 -7l-102 -45l-68 -65l-66 -80l-44 -80l-26 -100l-18 -119v-73z" />
<glyph unicode="&#xd5;" horiz-adv-x="1348" d="M-420 1559q0 256 171 256q77 0 133 -51q56 -52 124 -52t68 103h103q0 -256 -171 -256q-77 0 -133 51q-55 52 -124 52q-68 0 -68 -103h-103zM40 863l45 231l38 151l72 132l90 110l106 101l164 72l136 12l129 -23l118 -28l112 -83l112 -124l26 -48h1l66 -121l38 -152 l21 -170v-213h-4l-3 -49l-31 -164l-29 -76l3 -3l-27 -60l-1 1l-3 -4l-55 -118l-134 -138l-152 -86l-164 -23l-158 12l-142 59l-98 75l-92 99l-68 121l-54 141l-31 164l-11 172v30h-20zM276 867l9 -194l24 -118l36 -97l43 -77l59 -64l62 -46l90 -38l109 -8l110 16l93 52 l83 87l38 80l8 17l29 78l22 118l7 200v55l-16 132l-22 90l-16 33l-48 87l-77 84l-62 47l-77 18l-97 17l-83 -7l-102 -45l-68 -65l-66 -80l-44 -80l-26 -100l-18 -119v-73z" />
<glyph unicode="&#xd6;" horiz-adv-x="1348" d="M-69 1852v99l70 69h104l74 -68v-101l-74 -69h-104zM40 863l45 231l38 151l72 132l90 110l106 101l164 72l136 12l129 -23l118 -28l112 -83l112 -124l26 -48h1l66 -121l38 -152l21 -170v-213h-4l-3 -49l-31 -164l-29 -76l3 -3l-27 -60l-1 1l-3 -4l-55 -118l-134 -138 l-152 -86l-164 -23l-158 12l-142 59l-98 75l-92 99l-68 121l-54 141l-31 164l-11 172v30h-20zM276 867l9 -194l24 -118l36 -97l43 -77l59 -64l62 -46l90 -38l109 -8l110 16l93 52l83 87l38 80l8 17l29 78l22 118l7 200v55l-16 132l-22 90l-16 33l-48 87l-77 84l-62 47 l-77 18l-97 17l-83 -7l-102 -45l-68 -65l-66 -80l-44 -80l-26 -100l-18 -119v-73zM331 1852v99l70 69h104l74 -68v-101l-74 -69h-104z" />
<glyph unicode="&#xd7;" horiz-adv-x="878" d="M50 385l283 340l-283 340l106 127l283 -340l283 340l106 -127l-283 -340l283 -340l-106 -127l-283 340l-283 -340z" />
<glyph unicode="&#xd8;" horiz-adv-x="1300" />
<glyph unicode="&#xd9;" horiz-adv-x="1251" d="M-107 2121l183 85l130 -407l-182 -85zM100 568v1104h216v-1088l15 -110l36 -98l32 -52l52 -42l53 -34l66 -17h82l97 11l81 38l50 58l38 70l23 87l10 97v1080h216v-1092l-14 -138l-38 -141l-67 -125l-99 -112l-147 -73l-140 -15h-223v27l-12 4l-88 56l-93 77l-68 112 l-56 152z" />
<glyph unicode="&#xda;" horiz-adv-x="1251" d="M-55 1786l141 421l181 -87l-140 -421zM100 568v1104h216v-1088l15 -110l36 -98l32 -52l52 -42l53 -34l66 -17h82l97 11l81 38l50 58l38 70l23 87l10 97v1080h216v-1092l-14 -138l-38 -141l-67 -125l-99 -112l-147 -73l-140 -15h-223v27l-12 4l-88 56l-93 77l-68 112 l-56 152z" />
<glyph unicode="&#xdb;" horiz-adv-x="1251" d="M-166 1683l206 372l56 -45l56 45l206 -372l-124 -99l-138 249l-138 -249zM100 568v1104h216v-1088l15 -110l36 -98l32 -52l52 -42l53 -34l66 -17h82l97 11l81 38l50 58l38 70l23 87l10 97v1080h216v-1092l-14 -138l-38 -141l-67 -125l-99 -112l-147 -73l-140 -15h-223v27 l-12 4l-88 56l-93 77l-68 112l-56 152z" />
<glyph unicode="&#xdc;" horiz-adv-x="1251" d="M-219 1852v99l70 69h104l74 -68v-101l-74 -69h-104zM100 568v1104h216v-1088l15 -110l36 -98l32 -52l52 -42l53 -34l66 -17h82l97 11l81 38l50 58l38 70l23 87l10 97v1080h216v-1092l-14 -138l-38 -141l-67 -125l-99 -112l-147 -73l-140 -15h-223v27l-12 4l-88 56l-93 77 l-68 112l-56 152zM181 1852v99l70 69h104l74 -68v-101l-74 -69h-104z" />
<glyph unicode="&#xdd;" horiz-adv-x="1142" d="M-74 1786l141 421l181 -87l-140 -421zM47 1528l180 143l349 -630l348 630l181 -143l-419 -720v-816h-218v816z" />
<glyph unicode="&#xde;" horiz-adv-x="1150" />
<glyph unicode="&#xdf;" horiz-adv-x="1050" />
<glyph unicode="&#xe0;" horiz-adv-x="993" d="M43 387l42 133l67 98l102 47l121 30h354l-1 12l-31 88l-58 91l-65 30l-88 8l-73 -17l-71 -57l-71 -69l-21 -22l-143 187l28 31l92 90l117 68l129 32l149 -15l139 -65l116 -152l61 -169l5 -126v-651h-212v125l-59 -49l-102 -59l-134 -23l-133 23l-118 60l-82 90l-47 125z M252 358l11 -54l15 -19l23 -26l60 -30l75 -13l72 12l59 19l70 39l26 41l68 -89v265h-335l-56 -14l-42 -35l-34 -34zM276 1641l183 85l130 -407l-182 -85z" />
<glyph unicode="&#xe1;" horiz-adv-x="993" d="M43 387l42 133l67 98l102 47l121 30h354l-1 12l-31 88l-58 91l-65 30l-88 8l-73 -17l-71 -57l-71 -69l-21 -22l-143 187l28 31l92 90l117 68l129 32l149 -15l139 -65l116 -152l61 -169l5 -126v-651h-212v125l-59 -49l-102 -59l-134 -23l-133 23l-118 60l-82 90l-47 125z M252 358l11 -54l15 -19l23 -26l60 -30l75 -13l72 12l59 19l70 39l26 41l68 -89v265h-335l-56 -14l-42 -35l-34 -34zM319 1306l141 421l181 -87l-140 -421z" />
<glyph unicode="&#xe2;" horiz-adv-x="993" d="M43 387l42 133l67 98l102 47l121 30h354l-1 12l-31 88l-58 91l-65 30l-88 8l-73 -17l-71 -57l-71 -69l-21 -22l-143 187l28 31l92 90l117 68l129 32l149 -15l139 -65l116 -152l61 -169l5 -126v-651h-212v125l-59 -49l-102 -59l-134 -23l-133 23l-118 60l-82 90l-47 125z M220 1419l206 372l56 -45l56 45l206 -372l-124 -99l-138 249l-138 -249zM252 358l11 -54l15 -19l23 -26l60 -30l75 -13l72 12l59 19l70 39l26 41l68 -89v265h-335l-56 -14l-42 -35l-34 -34z" />
<glyph unicode="&#xe3;" horiz-adv-x="993" d="M-355 1079q0 256 171 256q77 0 133 -51q56 -52 124 -52t68 103h103q0 -256 -171 -256q-77 0 -133 51q-55 52 -124 52q-68 0 -68 -103h-103zM43 387l42 133l67 98l102 47l121 30h354l-1 12l-31 88l-58 91l-65 30l-88 8l-73 -17l-71 -57l-71 -69l-21 -22l-143 187l28 31 l92 90l117 68l129 32l149 -15l139 -65l116 -152l61 -169l5 -126v-651h-212v125l-59 -49l-102 -59l-134 -23l-133 23l-118 60l-82 90l-47 125zM252 358l11 -54l15 -19l23 -26l60 -30l75 -13l72 12l59 19l70 39l26 41l68 -89v265h-335l-56 -14l-42 -35l-34 -34z" />
<glyph unicode="&#xe4;" horiz-adv-x="993" d="M43 387l42 133l67 98l102 47l121 30h354l-1 12l-31 88l-58 91l-65 30l-88 8l-73 -17l-71 -57l-71 -69l-21 -22l-143 187l28 31l92 90l117 68l129 32l149 -15l139 -65l116 -152l61 -169l5 -126v-651h-212v125l-59 -49l-102 -59l-134 -23l-133 23l-118 60l-82 90l-47 125z M175 1372v99l70 69h104l74 -68v-101l-74 -69h-104zM252 358l11 -54l15 -19l23 -26l60 -30l75 -13l72 12l59 19l70 39l26 41l68 -89v265h-335l-56 -14l-42 -35l-34 -34zM575 1372v99l70 69h104l74 -68v-101l-74 -69h-104z" />
<glyph unicode="&#xe5;" horiz-adv-x="993" d="M-267 1269v85l28 78l56 73l73 40h88l85 -37l49 -65l36 -75l3 -124l-37 -94l-54 -60l-59 -42l-45 -4h-70l-51 36l-41 36l-47 71zM-134 1286l4 -27l17 -25l21 -19l14 -9h38l18 14l25 28l13 30l-2 44l-12 26l-16 22l-31 14h-36l-22 -12l-22 -30l-9 -23v-33zM43 387l42 133 l67 98l102 47l121 30h354l-1 12l-31 88l-58 91l-65 30l-88 8l-73 -17l-71 -57l-71 -69l-21 -22l-143 187l28 31l92 90l117 68l129 32l149 -15l139 -65l116 -152l61 -169l5 -126v-651h-212v125l-59 -49l-102 -59l-134 -23l-133 23l-118 60l-82 90l-47 125zM252 358l11 -54 l15 -19l23 -26l60 -30l75 -13l72 12l59 19l70 39l26 41l68 -89v265h-335l-56 -14l-42 -35l-34 -34z" />
<glyph unicode="&#xe6;" horiz-adv-x="1671" d="M56 389l38 120l61 90l95 79l112 26h390v3l-2 61l-37 101l-68 90l-77 35l-99 10l-82 -20l-79 -47l-76 -73l-22 -24l-101 132l27 29l91 89l111 66l123 28l141 -14l130 -59l108 -144l4 -9l18 34l138 135l149 55l109 1l137 -56l120 -100l83 -134l41 -130l15 -113l-53 -9v-102 l-695 -23v-7l25 -109l52 -122l70 -58l101 -46l87 -1l102 24l83 63l54 58l38 49l109 -121l-43 -56l-68 -72l-116 -90l-146 -34l-7 -1h-106v2h-14l-144 65l-115 96l-42 96l-82 -102l-100 -83l-97 -55l-126 -22l-126 22l-110 58l-75 79l-42 114zM208 365l5 -55l20 -53l33 -35 l69 -36l86 -14l82 14l67 37l77 64l77 95l33 -36v150l-5 18l-1 12h-374l-67 -16l-52 -43l-33 -49zM908 685l587 19l-2 14l-27 88l-56 90l-83 70l-93 37h-62l-101 -37l-95 -92l-48 -96z" />
<glyph unicode="&#xe7;" horiz-adv-x="971" d="M49 524v164l42 155l74 151l94 93l128 72l157 15l132 -30l109 -58l95 -108l41 -70l-121 -104l-33 55l-67 75l-69 39l-96 21l-108 -10l-88 -50l-59 -57l-52 -107l-29 -109v-119l30 -172l57 -88l85 -78l74 -27l126 -9l112 36l56 54l60 103l123 -103l-73 -124l-97 -94 l-166 -54l-37 4l-54 -127l48 26l98 -5l49 -46l45 -81l-2 -109l-50 -88l-56 -48l-72 -20l-76 -2l-68 21l-73 30l-35 30l60 101l22 -19l57 -23l49 -16l51 2l41 12l25 20l22 40l1 33l-21 36l-17 21l-54 -3l-65 -14l-44 -36l-60 79l82 194l-33 2l-117 42l-123 111l-89 141z" />
<glyph unicode="&#xe8;" horiz-adv-x="1046" d="M45 499l1 163l42 157l74 148l146 142l158 58l118 1l145 -59l126 -105l88 -143l43 -137l14 -99l-86 -17l6 -84l-658 -43l15 -90l55 -83l60 -51l90 -40l76 -2l92 22l75 58l49 52l37 52l156 -152l-44 -57l-70 -75l-122 -94l-153 -35h-10h-105l-20 1l-151 68l-123 103 l-83 188zM273 577l72 85l419 27l-9 75l-49 79l-74 56l-82 33h-51l-89 -33l-85 -78l-42 -108l-10 -56v-80zM276 1651l183 85l130 -407l-182 -85z" />
<glyph unicode="&#xe9;" horiz-adv-x="1046" d="M45 499l1 163l42 157l74 148l146 142l158 58l118 1l145 -59l126 -105l88 -143l43 -137l14 -99l-86 -17l6 -84l-658 -43l15 -90l55 -83l60 -51l90 -40l76 -2l92 22l75 58l49 52l37 52l156 -152l-44 -57l-70 -75l-122 -94l-153 -35h-10h-105l-20 1l-151 68l-123 103 l-83 188zM273 577l72 85l419 27l-9 75l-49 79l-74 56l-82 33h-51l-89 -33l-85 -78l-42 -108l-10 -56v-80zM319 1306l141 421l181 -87l-140 -421z" />
<glyph unicode="&#xea;" horiz-adv-x="1045" d="M45 500l1 163l42 157l74 148l146 142l158 58l118 1l145 -59l126 -105l88 -143l43 -137l14 -99l-86 -17l6 -84l-658 -43l15 -90l55 -83l60 -51l90 -40l76 -2l92 22l75 58l49 52l37 52l156 -152l-44 -57l-70 -75l-122 -94l-153 -35h-10h-105l-20 1l-151 68l-123 103 l-83 188zM220 1419l206 372l56 -45l56 45l206 -372l-124 -99l-138 249l-138 -249zM273 578l72 85l419 27l-9 75l-49 79l-74 56l-82 33h-51l-89 -33l-85 -78l-42 -108l-10 -56v-80z" />
<glyph unicode="&#xeb;" horiz-adv-x="1044" d="M45 505l1 163l42 157l74 148l146 143l158 57l118 1l145 -58l126 -106l88 -143l43 -137l14 -99l-86 -17l6 -84l-658 -43l15 -90l55 -83l60 -50l90 -41l76 -1l92 21l75 58l49 53l37 51l156 -152l-44 -57l-70 -75l-122 -94l-153 -35h-10h-105l-20 2l-151 67l-123 103 l-83 188zM177 1372v99l70 69h104l74 -68v-101l-74 -69h-104zM273 583l72 85l419 28l-9 74l-49 79l-74 57l-82 32h-51l-89 -32l-85 -78l-42 -108l-10 -57v-80zM577 1372v99l70 69h104l74 -68v-101l-74 -69h-104z" />
<glyph unicode="&#xec;" d="M14 1641l183 85l130 -407l-182 -85zM100 -100v1200h150v-1200h-150z" />
<glyph unicode="&#xed;" d="M12 1306l141 421l181 -87l-140 -421zM100 -100v1200h150v-1200h-150z" />
<glyph unicode="&#xee;" d="M-87 1203l206 372l56 -45l56 45l206 -372l-124 -99l-138 249l-138 -249zM100 -100v1200h150v-1200h-150z" />
<glyph unicode="&#xef;" d="M-149 1372v99l70 69h104l74 -68v-101l-74 -69h-104zM100 -100v1200h150v-1200h-150zM251 1372v99l70 69h104l74 -68v-101l-74 -69h-104z" />
<glyph unicode="&#xf0;" horiz-adv-x="1050" />
<glyph unicode="&#xf1;" horiz-adv-x="1096" d="M-277 1079q0 256 171 256q77 0 133 -51q56 -52 124 -52t68 103h103q0 -256 -171 -256q-77 0 -133 51q-55 52 -124 52q-68 0 -68 -103h-103zM96 -12v1176h213v-166l63 89l65 58l163 20l151 -41l132 -97l81 -150l34 -162v-727h-212v716l-17 81l-40 74l-64 64l-78 20 l-91 -11l-67 -51l-52 -60l-68 88v-921h-213z" />
<glyph unicode="&#xf2;" horiz-adv-x="1096" d="M45 595l28 186l89 185l161 158l198 50h77l127 -37l160 -101l104 -168l63 -225l-12 -153l-51 -181l-90 -146l-154 -126l-194 -43l-174 28l-138 94l-124 173l-56 200zM259 583l9 -65l35 -125l73 -102l70 -47l100 -16l117 26l87 71l48 78l31 113l8 93l-39 165l-55 88l-94 59 l-77 23h-29l-125 -32l-92 -90l-50 -106zM331 1641l183 85l130 -407l-182 -85z" />
<glyph unicode="&#xf3;" horiz-adv-x="1096" d="M45 583l28 186l89 185l161 158l198 50h77l127 -37l160 -101l104 -168l63 -225l-12 -153l-51 -181l-90 -146l-154 -126l-194 -43l-174 28l-138 94l-124 173l-56 200zM259 571l9 -65l35 -125l73 -102l70 -47l100 -16l117 26l87 71l48 78l31 113l8 93l-39 165l-55 88l-94 59 l-77 23h-29l-125 -32l-92 -90l-50 -106zM389 1306l141 421l181 -87l-140 -421z" />
<glyph unicode="&#xf4;" horiz-adv-x="1096" d="M45 583l28 186l89 185l161 158l198 50h77l127 -37l160 -101l104 -168l63 -225l-12 -153l-51 -181l-90 -146l-154 -126l-194 -43l-174 28l-138 94l-124 173l-56 200zM259 571l9 -65l35 -125l73 -102l70 -47l100 -16l117 26l87 71l48 78l31 113l8 93l-39 165l-55 88l-94 59 l-77 23h-29l-125 -32l-92 -90l-50 -106zM287 1425l206 372l56 -45l56 45l206 -372l-124 -99l-138 249l-138 -249z" />
<glyph unicode="&#xf5;" horiz-adv-x="1096" d="M-275 1079q0 256 171 256q77 0 133 -51q56 -52 124 -52t68 103h103q0 -256 -171 -256q-77 0 -133 51q-55 52 -124 52q-68 0 -68 -103h-103zM45 583l28 186l89 185l161 158l198 50h77l127 -37l160 -101l104 -168l63 -225l-12 -153l-51 -181l-90 -146l-154 -126l-194 -43 l-174 28l-138 94l-124 173l-56 200zM259 571l9 -65l35 -125l73 -102l70 -47l100 -16l117 26l87 71l48 78l31 113l8 93l-39 165l-55 88l-94 59l-77 23h-29l-125 -32l-92 -90l-50 -106z" />
<glyph unicode="&#xf6;" horiz-adv-x="1096" d="M45 583l28 186l89 185l161 158l198 50h77l127 -37l160 -101l104 -168l63 -225l-12 -153l-51 -181l-90 -146l-154 -126l-194 -43l-174 28l-138 94l-124 173l-56 200zM174 1372v99l70 69h104l74 -68v-101l-74 -69h-104zM259 571l9 -65l35 -125l73 -102l70 -47l100 -16 l117 26l87 71l48 78l31 113l8 93l-39 165l-55 88l-94 59l-77 23h-29l-125 -32l-92 -90l-50 -106zM574 1372v99l70 69h104l74 -68v-101l-74 -69h-104z" />
<glyph unicode="&#xf7;" horiz-adv-x="1000" d="M103 635v179h794v-179h-794zM397 224v102l57 69h85l60 -69v-102l-60 -72h-85zM397 1124v102l57 68h85l60 -68v-102l-60 -72h-85z" />
<glyph unicode="&#xf8;" horiz-adv-x="1050" />
<glyph unicode="&#xf9;" horiz-adv-x="1097" d="M97 467v696h212v-703l8 -65l23 -57l49 -65l68 -52l51 -7l82 10l49 23l55 61l21 31l71 -80v904h213v-1176h-213v102l-34 -38l-113 -53l-134 -15l-121 16l-132 101l-90 118l-51 128zM333 1641l183 85l130 -407l-182 -85z" />
<glyph unicode="&#xfa;" horiz-adv-x="1097" d="M97 467v696h212v-703l8 -65l23 -57l49 -65l68 -52l51 -7l82 10l49 23l55 61l21 31l71 -80v904h213v-1176h-213v102l-34 -38l-113 -53l-134 -15l-121 16l-132 101l-90 118l-51 128zM364 1306l141 421l181 -87l-140 -421z" />
<glyph unicode="&#xfb;" horiz-adv-x="1097" d="M97 467v696h212v-703l8 -65l23 -57l49 -65l68 -52l51 -7l82 10l49 23l55 61l21 31l71 -80v904h213v-1176h-213v102l-34 -38l-113 -53l-134 -15l-121 16l-132 101l-90 118l-51 128zM256 1203l206 372l56 -45l56 45l206 -372l-124 -99l-138 249l-138 -249z" />
<glyph unicode="&#xfc;" horiz-adv-x="1097" d="M97 467v696h212v-703l8 -65l23 -57l49 -65l68 -52l51 -7l82 10l49 23l55 61l21 31l71 -80v904h213v-1176h-213v102l-34 -38l-113 -53l-134 -15l-121 16l-132 101l-90 118l-51 128zM188 1372v99l70 69h104l74 -68v-101l-74 -69h-104zM588 1372v99l70 69h104l74 -68v-101 l-74 -69h-104z" />
<glyph unicode="&#xfd;" horiz-adv-x="933" d="M4 1042l200 84l255 -945l258 952l200 -84l-342 -1170l-47 -121l-61 -114l-96 -99l-95 -56l-100 -16l-82 8l-75 31l68 241l51 -45l33 -4l43 7l40 24l51 53l37 67l57 190l-86 -53zM280 1306l141 421l181 -87l-140 -421z" />
<glyph unicode="&#xfe;" horiz-adv-x="1050" />
<glyph unicode="&#xff;" horiz-adv-x="933" d="M4 1042l200 84l255 -945l258 952l200 -84l-342 -1170l-47 -121l-61 -114l-96 -99l-95 -56l-100 -16l-82 8l-75 31l68 241l51 -45l33 -4l43 7l40 24l51 53l37 67l57 190l-86 -53zM125 1372v99l70 69h104l74 -68v-101l-74 -69h-104zM525 1372v99l70 69h104l74 -68v-101 l-74 -69h-104z" />
<glyph unicode="&#x152;" horiz-adv-x="2100" d="M47 737l38 260l36 142l67 123l86 107l100 95l154 66l127 12l123 -22l112 -27l104 -77l106 -118l-1 -1v147h74v81h771v-171h-696v-542h596v-174h-596v-603h751v-174h-826v90h-74v146l-124 -128l-141 -82l-155 -21l-150 10l-134 57l-92 71l-86 92l-65 114l-50 134l-30 155 l-11 172v66h-14zM210 674l9 -148l25 -124l39 -104l47 -83l64 -69l67 -51l98 -41l116 -8l117 15l102 59l91 94l40 85l9 19l31 84l23 124l7 153v139l-17 137l-23 99l-19 37l-49 91l-82 90l-70 52l-84 20l-101 18l-90 -8l-112 -48l-74 -70l-69 -86l-48 -88l-28 -107l-19 -125 v-156z" />
<glyph unicode="&#x153;" horiz-adv-x="1767" d="M49 544l27 176l83 174l153 150l189 48h71l121 -36l152 -94l82 -132l37 75l138 134l150 54l109 1l137 -55l120 -101l83 -134l40 -130l14 -111l-54 -11l4 -91l-696 -46l23 -103l53 -122l71 -58l100 -46l87 -1l103 24l82 63l54 57l38 49l110 -121l-43 -56l-68 -72l-117 -90 l-145 -35l-7 -1h-107v5h-14l-143 64l-116 96l-45 102l-67 -109l-146 -117l-184 -41l-165 26l-130 88l-117 164l-54 191zM199 535l10 -126l39 -138l82 -114l81 -55l113 -18l130 29l99 79l56 91l34 125l9 157l-43 155l-64 102l-105 66l-86 25h-37l-138 -35l-104 -100l-57 -120 zM1005 594l590 38l-27 87l-56 90l-82 68l-93 39l-63 -2l-101 -37l-95 -92l-48 -95z" />
<glyph unicode="&#x178;" horiz-adv-x="1142" d="M-721 1852v99l70 69h104l74 -68v-101l-74 -69h-104zM-321 1852v99l70 69h104l74 -68v-101l-74 -69h-104zM47 1528l180 143l349 -630l348 630l181 -143l-419 -720v-816h-218v816z" />
<glyph unicode="&#x2c6;" horiz-adv-x="600" d="M38 1203l206 372l56 -45l56 45l206 -372l-124 -99l-138 249l-138 -249z" />
<glyph unicode="&#x2dc;" horiz-adv-x="699" d="M50 1079q0 256 171 256q77 0 133 -51q56 -52 124 -52t68 103h103q0 -256 -171 -256q-77 0 -133 51q-55 52 -124 52q-68 0 -68 -103h-103z" />
<glyph unicode="&#x2000;" horiz-adv-x="1175" />
<glyph unicode="&#x2001;" horiz-adv-x="2351" />
<glyph unicode="&#x2002;" horiz-adv-x="1175" />
<glyph unicode="&#x2003;" horiz-adv-x="2351" />
<glyph unicode="&#x2004;" horiz-adv-x="783" />
<glyph unicode="&#x2005;" horiz-adv-x="587" />
<glyph unicode="&#x2006;" horiz-adv-x="391" />
<glyph unicode="&#x2007;" horiz-adv-x="391" />
<glyph unicode="&#x2008;" horiz-adv-x="293" />
<glyph unicode="&#x2009;" horiz-adv-x="470" />
<glyph unicode="&#x200a;" horiz-adv-x="130" />
<glyph unicode="&#x2010;" horiz-adv-x="800" d="M80 633v188h640v-188h-640z" />
<glyph unicode="&#x2011;" horiz-adv-x="800" d="M80 633v188h640v-188h-640z" />
<glyph unicode="&#x2012;" horiz-adv-x="800" d="M80 633v188h640v-188h-640z" />
<glyph unicode="&#x2013;" horiz-adv-x="800" d="M80 633v188h640v-188h-640z" />
<glyph unicode="&#x2014;" horiz-adv-x="1200" d="M80 580v236h1040v-236h-1040z" />
<glyph unicode="&#x2018;" horiz-adv-x="400" d="M77 932v274l109 262h147l-75 -240h65v-296h-246z" />
<glyph unicode="&#x2019;" horiz-adv-x="400" d="M70 991l74 181l-73 90v130l73 88h107l77 -88v-221h-13l-106 -263z" />
<glyph unicode="&#x201a;" horiz-adv-x="400" d="M72 -161l71 139l-69 71v100l70 67h104l74 -67v-171h-13l-102 -201z" />
<glyph unicode="&#x201c;" horiz-adv-x="700" d="M77 932v274l109 262h147l-75 -240h65v-296h-246zM377 932v274l109 262h147l-75 -240h65v-296h-246z" />
<glyph unicode="&#x201d;" horiz-adv-x="700" d="M72 1279l71 139l-69 71v100l70 67h104l74 -67v-171h-13l-102 -201zM372 1279l71 139l-69 71v100l70 67h104l74 -67v-171h-13l-102 -201z" />
<glyph unicode="&#x201e;" horiz-adv-x="700" d="M72 -161l71 139l-69 71v100l70 67h104l74 -67v-171h-13l-102 -201zM372 -161l71 139l-69 71v100l70 67h104l74 -67v-171h-13l-102 -201z" />
<glyph unicode="&#x2022;" horiz-adv-x="600" d="M98 604v200l116 138h167l115 -138v-200l-115 -141h-167z" />
<glyph unicode="&#x2026;" horiz-adv-x="1200" d="M76 52v99l70 69h104l74 -68v-101l-74 -69h-104zM476 52v99l70 69h104l74 -68v-101l-74 -69h-104zM876 52v99l70 69h104l74 -68v-101l-74 -69h-104z" />
<glyph unicode="&#x202f;" horiz-adv-x="470" />
<glyph unicode="&#x2039;" horiz-adv-x="571" d="M33 623l53 47l-53 47l348 573l157 -138l-293 -483l290 -484l-158 -137z" />
<glyph unicode="&#x203a;" horiz-adv-x="571" d="M33 1152l157 138l348 -573l-53 -47l53 -47l-344 -575l-158 137l290 484z" />
<glyph unicode="&#x205f;" horiz-adv-x="587" />
<glyph unicode="&#x20ac;" horiz-adv-x="1475" d="M53 466v178h199v56h-199v180h210l14 93l37 149l70 128l89 109l104 99l160 70l133 11l126 -21l118 -28l109 -83l110 -120l75 -138l-164 -128l-61 114l-78 86l-65 47l-79 19l-98 17l-84 -7l-106 -46l-70 -66l-66 -81l-45 -83l-26 -101l-5 -40h553v-180h-567v-52v-4h522 v-178h-505l16 -85l37 -99l44 -78l61 -66l63 -48l92 -39l111 -7l112 14l95 54l86 89l38 82l41 83l170 -113l-48 -108l-3 2l-45 -97l-131 -134l-149 -84l-160 -23l-156 11l-139 57l-96 75l-90 97l-66 119l-53 139l-30 158v1h-211z" />
<glyph unicode="&#x2122;" horiz-adv-x="1050" d="M50 1330v120h400v-120h-150v-480h-100v480h-150zM500 850v600h150l100 -444l100 444h150v-600h-100v444l-100 -444h-100l-100 444v-444h-100z" />
<glyph unicode="&#x25fc;" horiz-adv-x="1165" d="M0 0v1165h1165v-1165h-1165z" />
</font>
</defs>
</svg>
