<?xml version="1.0" standalone="no"?>
<!DOCTYPE svg PUBLIC "-//W3C//DTD SVG 1.1//EN" "http://www.w3.org/Graphics/SVG/1.1/DTD/svg11.dtd" >
<svg xmlns="http://www.w3.org/2000/svg">
<metadata></metadata>
<defs>
<font id="gap_sansregular" horiz-adv-x="1050" >
<font-face units-per-em="2048" ascent="1638" descent="-410" />
<missing-glyph horiz-adv-x="500" />
<glyph horiz-adv-x="0" />
<glyph horiz-adv-x="682" />
<glyph unicode=" "  horiz-adv-x="500" />
<glyph unicode="&#x09;" horiz-adv-x="500" />
<glyph unicode="&#xa0;" horiz-adv-x="500" />
<glyph unicode="!" horiz-adv-x="350" d="M74 74v102l57 68h85l60 -68v-102l-60 -72h-85zM101 478v1193h146v-1193h-146z" />
<glyph unicode="&#x22;" horiz-adv-x="600" d="M102 1325v254h146v-254h-34v-228h-82v228h-30zM352 1325v254h146v-254h-34v-228h-82v228h-30z" />
<glyph unicode="#" horiz-adv-x="1400" d="M99 478v179h235l74 362h-205v179h242l97 473l145 -43l-200 -971h344l74 362h-304v179h341l97 473l145 -43l-88 -430h199v-179h-202v160l-109 -522h209v-179h-212v157l-130 -632l-146 43l89 432h-305v177l-135 -652l-146 43l89 432h-198z" />
<glyph unicode="$" horiz-adv-x="1150" d="M41 409l129 89l54 -111l27 -44l41 -37l60 -47l49 -33l66 -25l73 -17h10v577l-9 1l-197 60l-105 67l-83 87l-50 134l-9 129l18 126l55 123l88 99l126 61l101 21l65 8v242h102v-239h14l86 -21l69 -23l101 -60l93 -85l22 -24l-103 -131l-15 18l-76 69l-74 45l-53 17l-65 16 h1v-584l21 -5l112 -29l108 -48l95 -75l60 -87l65 -141l-17 -23v-90l-21 -133l-85 -118l-67 -60l-71 -48l-99 -33l-16 -4v-18h-85v-234h-102v234h-25l-95 22l-89 34l-69 47l-67 53l-60 54l-46 73zM247 1230l6 -74l26 -71l46 -47l75 -48l150 -45v552l-45 -5l-80 -17l-86 -41 l-49 -56l-32 -72zM652 186l65 15l77 26l48 32l46 40l46 65l13 71v96l-21 43l-38 51l-62 50l-81 36l-93 24v-549z" />
<glyph unicode="%" horiz-adv-x="1400" d="M54 1408l52 132l79 88l87 56l60 -2h95l69 -44l63 -48l68 -105l17 -114v-118l-36 -110l-77 -109l-104 -63h-130l-121 60l-68 96l-50 105zM195 1372l3 -92l26 -56l37 -52l64 -32h68l49 29l42 60l19 55v72l-9 59l-32 49l-37 28l-32 20h-64l-24 2l-37 -24l-46 -52zM349 4 l562 1745l139 -65l-562 -1745zM752 330v123l40 108l80 105l103 56h127l120 -53l69 -91l51 -106l4 -176l-52 -132l-78 -87l-83 -60l-62 -5h-100l-71 51l-61 51l-66 101zM893 350l10 -59l34 -53l40 -35l32 -23h57l23 3l42 30l47 53l27 66l-3 92l-26 54l-35 48l-64 29h-72 l-48 -28l-46 -60l-18 -51v-66z" />
<glyph unicode="&#x26;" horiz-adv-x="1350" d="M55 516l33 161l56 126l101 85l-52 66l-64 115l-26 150l25 167l67 162l148 91l183 39l197 -39l145 -99l76 -81l-99 -134l-64 68l-108 75l-146 27l-136 -27l-84 -52l-36 -88l-16 -105l14 -84l40 -73l67 -81l32 -31h494v238h149v-238h198v-179h-198v-774h-149v226l-70 -85 l-109 -89l-158 -48h-192l-7 17l-91 33l-108 97l-80 143zM207 510l22 -146l48 -87l66 -60l92 -32h112l118 35l96 69l97 93l44 60v333h-501l-78 -39l-64 -56l-31 -68z" />
<glyph unicode="'" horiz-adv-x="350" d="M102 1325v254h146v-254h-34v-228h-82v228h-30z" />
<glyph unicode="(" horiz-adv-x="500" d="M48 887l19 252l47 258l61 227l122 307l135 -76l-118 -297l-56 -207l-43 -239l-17 -229l8 -258l41 -258l59 -215l66 -187l57 -123l-130 -87l-62 132l-71 202l-63 233l-45 282z" />
<glyph unicode=")" horiz-adv-x="500" d="M74 1845l135 76l122 -307l61 -227l47 -258l19 -252l-10 -283l-45 -282l-63 -233l-71 -202l-62 -132l-130 87l57 123l66 187l59 215l41 258l8 258l-17 229l-43 239l-56 207z" />
<glyph unicode="*" horiz-adv-x="584" d="M50 1191l137 93l-137 92l51 108l139 -92v191h104v-194l139 95l51 -108l-137 -92l137 -93l-51 -108l-139 95v-191h-104v190l-139 -94z" />
<glyph unicode="+" horiz-adv-x="1000" d="M103 770v178h321v363h150v-363h323v-178h-323v-358h-150v358h-321z" />
<glyph unicode="," horiz-adv-x="400" d="M97 212v102l57 68h85l60 -68v-55v-47v-72h-4l-99 -241l-93 54l77 187h-26z" />
<glyph unicode="-" horiz-adv-x="800" d="M103 777v180h594v-180h-594z" />
<glyph unicode="." horiz-adv-x="400" d="M99 191v102l57 69h85l60 -69v-102l-60 -71h-85z" />
<glyph unicode="/" horiz-adv-x="600" d="M8 -191l439 2109l145 -43l-439 -2109z" />
<glyph unicode="0" horiz-adv-x="1100" d="M49 785l1 91l5 100l14 111l19 117l26 98l36 95l56 95l69 81l99 72l101 36l72 6l61 -6l86 -24l85 -54l82 -55l55 -84l41 -80l39 -93l29 -115l10 -106l16 -124l-2 -8v-204l-7 -120l-13 -72l-18 -103l-34 -115l-63 -132l-77 -83l-85 -59l-100 -43l-72 -15l-71 8l-77 13 l-62 29l-66 38l-63 60l-44 51l-41 69l-35 88l-25 76l-18 76l-11 83l-9 93l-6 100l88 9h-91zM198 790h3l6 -99l8 -85l10 -67l13 -57l22 -63l26 -67l24 -42l31 -34l43 -42l46 -26l41 -20l58 -10l44 -5l40 9l76 33l60 41l47 51l44 93l26 88l17 92l10 60l6 100v206l-13 103 l-8 91l-22 84l-30 72l-33 65l-32 48l-56 38l-63 41l-57 14l-39 5l-44 -5l-67 -24l-68 -48l-47 -56l-40 -67l-26 -70l-21 -79l-17 -103l-12 -101l-6 -88v-76z" />
<glyph unicode="1" horiz-adv-x="550" d="M98 1499v120l202 59l81 1v-84h71v-1596h-149v1500h-205z" />
<glyph unicode="2" horiz-adv-x="1100" d="M93 87v180l15 61l57 128l88 117l105 98l113 81l103 60l68 43l65 47l47 50l53 89l41 87l7 65l-7 59l-40 114l-80 86l-108 54h-151l-137 -42l-90 -61l-34 -36l-100 135l46 49l122 83l175 52h199l159 -80l124 -133l60 -172l14 -105l-14 -125l-59 -127l-68 -113l-69 -75 l-83 -58l-73 -47l-99 -59l-100 -70l-87 -81l-66 -89l-41 -91l-4 -19v-59h753v-181h-828v85h-76z" />
<glyph unicode="3" horiz-adv-x="1100" d="M49 404l130 90l35 -72l30 -57l54 -68l92 -72l105 -49h104l108 23l97 67l62 75l36 76v115l-24 91l-54 78l-73 53l-151 27h-135v178h139l72 12l92 46l49 79l34 67v94l-29 108l-56 68l-71 46l-96 20h-103l-106 -38l-93 -83l-43 -45l-100 134l48 52l120 105l152 55h138 l134 -27l113 -73l97 -120l46 -176v-166l-66 -136l-86 -89l76 -54l87 -132l38 -149v-184l-64 -140l-91 -110l-137 -96l-147 -32h-146l-145 69l-120 94l-75 96l-41 77z" />
<glyph unicode="4" horiz-adv-x="1200" d="M100 658l620 1024l66 -57h118v-964h196v-181h-196v-481h-148v481h-572v104zM285 661h471v771z" />
<glyph unicode="5" d="M49 411l141 62l11 -38l29 -54l52 -74l61 -56l79 -50l100 -25l114 11l118 70l70 110l26 134l-11 145l-31 109l-79 90l-93 47l-91 16l-107 -16l-69 -42l-102 -131l-143 132l21 34h-48v706h83v88h768v-180h-701v-532l5 -6l25 34l115 72l155 23l130 -23l136 -68l125 -144 l49 -172l14 -194l-39 -200l-111 -174l-174 -105l-165 -15l-141 34l-109 70l-84 77l-69 98l-43 81z" />
<glyph unicode="6" d="M35 687l1 222l30 246l63 211l99 175l175 122l180 18l141 -36l122 -80l84 -102l22 -30l-114 -117l-18 25l-65 79l-83 54l-99 25l-124 -12l-116 -80l-69 -122l-52 -173l-25 -208l33 41l67 58l126 56l139 13l125 -14l151 -58l126 -153l61 -178l-4 -185l-32 -157l-87 -173 l-134 -115l-168 -46l-168 22l-164 78l-93 120l-60 130l-47 174zM185 700l19 -141l39 -144l44 -95l57 -75l115 -54l122 -15l114 31l85 72l59 116l22 112l3 128l-38 111l-79 96l-100 39l-96 10l-105 -10l-88 -39l-40 -35l-37 -46l-35 -67l-61 46v-40z" />
<glyph unicode="7" horiz-adv-x="1100" d="M96 1500v180h833v-108l83 -76l-13 -17l-85 -131l-69 -133l-76 -163l-50 -132l-57 -144l-51 -214l-37 -199l-21 -207l-7 -164l-149 9l6 170l23 222l40 216l55 231l62 156l52 138l82 175l74 141l32 50h-727z" />
<glyph unicode="8" d="M48 522l34 161l70 133l93 86l5 2l-43 31l-68 113l-34 152l4 171l79 165l150 130l187 17l169 -33l143 -86l73 -112l38 -164l-18 -173l-54 -135l-68 -62l-19 -18l40 -34l106 -108l67 -156v-266l-28 2l-37 -114l-105 -132l-142 -78l-189 -20l-161 21l-162 117l-113 178z M200 509l11 -131l69 -110l109 -78l114 -14l148 14l94 52l64 79l42 132v105l-37 87l-66 81l-80 40l-68 19l-222 -15l-59 -27l-55 -50l-42 -82zM255 1222l14 -95l30 -67l81 -80l76 -26l87 -3l17 5h19l59 10l86 60l41 62l27 79l4 108l-23 93l-34 53l-92 55l-128 26l-128 -12 l-89 -77l-44 -93z" />
<glyph unicode="9" d="M32 1032l11 184l37 156l93 166l139 110l169 36l167 -30l161 -88l89 -124l55 -133l41 -175l16 -173l-9 -222l-39 -243l-70 -208l-106 -170l-179 -112l-180 -8l-141 43l-118 85l-81 107l-21 32l119 111l17 -27l62 -83l81 -57l98 -30l125 6l119 73l73 119l58 170l36 226 l-48 -52l-72 -53l-115 -58l-140 -6l-124 20l-149 66l-119 160zM184 1057l34 -113l75 -100l99 -44l95 -15l105 5l89 33l42 34l39 43l37 65l59 -48l2 39l-14 143l-34 145l-40 98l-55 76l-112 62l-122 21l-115 -25l-87 -67l-63 -114l-27 -111z" />
<glyph unicode=":" horiz-adv-x="400" d="M99 112v102l57 69h85l60 -69v-102l-60 -71h-85zM99 1061v102l57 68h85l60 -68v-102l-60 -72h-85z" />
<glyph unicode=";" horiz-adv-x="400" d="M97 133v102l57 68h85l60 -68v-55v-47v-72h-4l-99 -241l-93 54l77 187h-26zM97 1081v103l57 68h85l60 -68v-103l-60 -71h-85z" />
<glyph unicode="&#x3c;" horiz-adv-x="1000" d="M100 954l745 345l54 -167l-624 -289l625 -293l-54 -166l-743 348l34 105z" />
<glyph unicode="=" horiz-adv-x="1000" d="M113 535v179h794v-179h-794zM113 1017v179h794v-179h-794z" />
<glyph unicode="&#x3e;" horiz-adv-x="1000" d="M100 546l625 293l-624 289l54 167l745 -345l-37 -117l34 -105l-743 -348z" />
<glyph unicode="?" horiz-adv-x="990" d="M46 1492l35 42l112 72l138 55l138 19l153 -19l140 -77l104 -114l78 -193l-13 -23v-148l-66 -170l-115 -115l-92 -61l-91 -58l-47 -76l-23 -68l-7 -79l-148 18l9 104l38 114l79 126l120 76l77 51l79 80l38 98v119l-38 97l-65 71l-97 53l-113 14l-106 -14l-110 -45l-82 -53 l-19 -22zM315 85v102l59 69h85l58 -69v-102l-58 -72h-85z" />
<glyph unicode="@" horiz-adv-x="1900" d="M47 681l58 331l107 243l164 209l223 172l253 75l244 -12l231 -78l153 -114l135 -148l130 -224l76 -223l24 -199l-12 -223l-62 -196l-103 -153l-123 -83l-94 -21l-95 21l-67 53l-49 79l-11 50l-52 -72l-75 -72l-99 -51h-121v42l-22 -41l-119 44l-109 73l-93 146l-55 198 l-14 186l58 241l83 143l127 117l155 43l153 -27l87 -63l91 -117l2 53v152h149v-942l4 -25l14 -25l20 -15l38 -9l42 9l77 52l70 104l46 144l10 178l-20 158l-63 185l-111 191l-113 125l-123 92l-193 65l-205 9l-210 -62l-186 -144l-138 -174l-87 -200l-50 -280l25 -271 l89 -239l132 -187l147 -133l152 -64l127 -28h140l110 16l126 49l88 53l42 36l87 -145l-51 -45l-110 -64l-150 -59l-131 -18l-6 50v-51h-158l-151 33l-186 77l-179 162l-156 222l-108 287zM621 676l10 -132l42 -150l59 -93l68 -45l88 -33h83l53 27l49 47l46 63l28 55l53 -39 h1l-51 43l10 17l66 -54v529l-42 -43l-66 87l-104 88l-112 13l-99 -27l-83 -77l-56 -96z" />
<glyph unicode="A" horiz-adv-x="1200" d="M18 42l218 720l51 170l216 760l94 -40l94 40l216 -760l51 -170l222 -718l-141 -62l-166 534h-553l-161 -534zM353 611l62 77h402l-220 790z" />
<glyph unicode="B" horiz-adv-x="1150" d="M99 84v694v170v641h76v78h516l100 -18l88 -59l65 -63l55 -72l28 -90l18 -95l-29 -8l34 -9v-86l-32 -138l-88 -121l-25 -22l72 -65l58 -90l45 -103l16 -119l1 -144l-41 -108l-64 -127l-91 -96l-119 -37h-607v87h-76zM250 104l51 66h463l69 20l49 50l49 96l24 65l-1 94 l-10 79l-29 66l-37 59l-58 51l-58 29h-78h-16h-418v-675zM250 882l50 66h368h16h18l68 30l64 56l55 75l19 81v49l-16 78l-17 48l-29 38l-47 47l-57 38l-64 16h-428v-622z" />
<glyph unicode="C" horiz-adv-x="1225" d="M38 878l38 264l36 144l68 126l86 108l101 96l155 68l128 11l124 -22l113 -27l104 -78l107 -119l63 -116l19 -39l-128 -95l-19 38l-50 93l-82 91l-70 53l-85 21l-101 18l-91 -9l-113 -49l-74 -71l-69 -86l-49 -90l-27 -109l-19 -126v-160l9 -151l24 -126l40 -106l47 -84 l64 -71l67 -51l99 -42l116 -9l119 17l102 59l92 96l40 86l29 62l130 -93l-29 -60l-52 -113l-127 -132l-143 -82l-156 -22l-151 11l-135 56l-93 72l-86 96l-65 115l-51 137l-30 157l-11 176v67h-14z" />
<glyph unicode="D" horiz-adv-x="1250" d="M100 86v1498h76v85h462l124 -15l119 -57l91 -79l95 -125l70 -146l49 -180l20 -258h-10v-87l-25 -178l-48 -137l-89 -178l-119 -113l-122 -78l-111 -32l-44 -7h-462v87h-76zM250 106l55 66h326l27 2l84 25l95 60l89 84l70 141l38 108l20 145v180l-9 116l-38 145l-55 114 l-75 99l-64 56l-85 40l-97 12h-381v-1393z" />
<glyph unicode="E" horiz-adv-x="1100" d="M98 90v1498h75v85h774v-170h-700v-613l55 64h546v-169h-601v-675l54 66h701v-173h-829v87h-75z" />
<glyph unicode="F" horiz-adv-x="1100" d="M99 7v1585h80v85h774v-170h-700v-613l55 64h546v-169h-601v-782h-154z" />
<glyph unicode="G" horiz-adv-x="1300" d="M38 879l38 266l36 146l68 126l86 108l101 97l155 67l128 12l124 -22l112 -27l105 -79l107 -119l62 -115l20 -39l-128 -96l-19 37l-50 94l-82 91l-71 53l-84 22l-102 16l-90 -7l-113 -50l-74 -71l-69 -86l-49 -90l-27 -108l-18 -128v-158l8 -151l24 -126l39 -107l48 -84 l64 -70l67 -52l99 -41l116 -9l119 16l102 60l95 98l64 108v329h-402v171h482v-86h71v-474l-104 -172l-123 -129l-143 -81l-157 -22l-150 11l-135 56l-93 72l-86 95l-65 115l-50 137l-30 158l-9 174v64h-17z" />
<glyph unicode="H" horiz-adv-x="1200" d="M100 3v781v170v719h151v-785l53 66h647v719h149v-1670h-149v782h-700v-782h-151z" />
<glyph unicode="I" horiz-adv-x="350" d="M100 3v1680h150v-1680h-150z" />
<glyph unicode="J" horiz-adv-x="950" d="M43 232l106 128l33 -39l80 -89l65 -48l79 -9l106 5l73 27l67 79l43 93l3 24v1277h149v-1293l-9 -68l-65 -144l-109 -126l-125 -48l-138 -7l-123 15l-107 79l-94 105z" />
<glyph unicode="K" horiz-adv-x="1100" d="M96 4v1671h151v-919l572 934l117 -103l-401 -654l509 -834l-121 -107l-481 789l-141 -231l-54 65v-611h-151z" />
<glyph unicode="L" horiz-adv-x="1100" d="M103 96v1583h150v-1563l56 66h688v-173h-820v87h-74z" />
<glyph unicode="M" horiz-adv-x="1600" d="M98 0v1670h149v-104l119 45l437 -1462l435 1467l114 -50v104h150v-1670h-150v1473l-441 -1497l-109 50l-110 -45l-445 1497v-1478h-149z" />
<glyph unicode="N" horiz-adv-x="1200" d="M100 2v1670h151v-139l54 65l646 -1308v1382h149v-1670h-149v111l-55 -64l-645 1305v-1352h-151z" />
<glyph unicode="O" horiz-adv-x="1300" d="M39 875l38 266l36 145l68 126l86 108l101 97l155 67l128 12l124 -21l112 -28l105 -79l107 -119l24 -44l64 -119l35 -145l19 -167v-255l-4 -84l-30 -158l-27 -72l3 -2l-26 -62l-2 2l-2 -4l-52 -113l-127 -133l-143 -82l-157 -21l-150 9l-135 58l-93 72l-87 95l-65 116 l-51 137l-31 157l-11 175v66h-12zM199 813l12 -151l26 -127l39 -106l48 -84l64 -71l67 -53l98 -40l117 -9l119 17l102 59l92 95l40 87l9 19l31 86l23 127l6 156v141l-16 141l-23 99l-19 38l-50 93l-83 91l-70 53l-84 21l-102 18l-91 -9l-112 -49l-74 -71l-70 -86l-49 -90 l-29 -109l-21 -128v-158z" />
<glyph unicode="P" horiz-adv-x="1150" d="M101 5v776v169v640h74v85h574l93 -21l84 -47l75 -84l60 -108l22 -102l-71 -21h79v-129l-42 -156l-85 -113l-114 -92l-69 -21l-119 -1h-413v-775h-148zM249 886l50 64h363h79h18l29 11l80 66l51 67l27 95v90l-17 64l-40 66l-46 50l-48 28l-61 14h-485v-615z" />
<glyph unicode="Q" horiz-adv-x="1300" d="M41 887l38 264l36 143l68 126l86 108l101 96l155 67l127 12l124 -21l113 -28l105 -79l107 -119l24 -44l1 1l64 -118l36 -144l38 -264h-20v-161h-1l-5 -82l-29 -156l-27 -72l3 -3l-27 -60l-2 1l-1 -3l-31 -66l179 -223l-107 -126l-175 217l-46 -47l-143 -83l-156 -21 l-150 10l-135 57l-93 72l-87 95l-65 115l-51 137l-30 157l-12 175v67h-12zM202 822l11 -151l26 -125l39 -106l47 -84l64 -70l68 -53l98 -41l117 -8l118 17l103 59l91 94l41 88l9 19l31 85l23 125l7 156v153l-17 128l-23 100l-19 37l-50 93l-83 92l-70 52l-84 21l-102 18 l-91 -9l-112 -49l-75 -71l-69 -86l-49 -90l-29 -108l-20 -127v-159z" />
<glyph unicode="R" horiz-adv-x="1150" d="M100 7v775v171v639h74v86h510h27l68 -3l65 -15l85 -50l76 -84l59 -109l22 -102l-72 -21h76v-129l-40 -157l-83 -113l-115 -92l-39 -15l274 -739l-138 -71l-297 804h-404v-775h-148zM248 888l53 64h362h41h40l17 6l27 9l79 64l49 67l24 94v90l-14 62l-37 65l-45 51l-48 28 l-61 14h-51h-436v-614z" />
<glyph unicode="S" horiz-adv-x="1150" d="M47 402l130 91l54 -114l28 -45l41 -37l59 -48l50 -35l66 -26l73 -18h100l78 19l78 27l48 32l45 41l46 67l10 71v98l-19 43l-35 53l-63 51l-83 37l-103 26l-103 27l-196 61l-105 67l-83 89l-51 135l-9 131l18 129l55 126l89 100l126 63l100 21l88 10h97l86 -22l70 -21 l101 -63l94 -86l22 -25l-103 -132l-16 18l-77 71l-74 45l-53 18l-66 19h-74l-74 -10l-79 -20l-86 -42l-50 -56l-32 -73l-11 -77l5 -77l27 -71l46 -49l74 -48l177 -55l98 -24l114 -30l109 -49l96 -76l60 -89l63 -144l-19 -22v-92l-19 -135l-84 -121l-67 -62l-73 -48l-101 -33 l-19 -5v-18h-207l-96 23l-90 35l-69 48l-67 54l-60 54l-46 74z" />
<glyph unicode="T" horiz-adv-x="1200" d="M100 1499v170h1000v-170h-425v-1500h-148v1500h-427z" />
<glyph unicode="U" horiz-adv-x="1200" d="M98 548v1132h151v-1117l16 -119l39 -106l38 -62l58 -48l59 -37l74 -20h87l105 11l91 45l58 66l42 79l26 96l11 103v1109h149v-1121l-14 -131l-35 -134l-63 -117l-91 -104l-138 -67l-133 -16h-189v21l-34 9l-82 53l-88 72l-62 102l-53 145z" />
<glyph unicode="V" horiz-adv-x="1200" d="M17 1633l141 60l442 -1516l442 1516l141 -60l-475 -1630l-108 46l-108 -46z" />
<glyph unicode="W" horiz-adv-x="1700" d="M6 1636l145 43l298 -1435l300 1435l101 -30l101 30l298 -1435l300 1435l145 -43l-341 -1636l-104 31l-104 -31l-295 1421l-297 -1421l-104 31l-104 -31z" />
<glyph unicode="X" horiz-adv-x="1100" d="M48 1587l125 100l377 -685l377 685l125 -100l-412 -749l408 -741l-125 -100l-373 678l-373 -678l-125 100l408 741z" />
<glyph unicode="Y" horiz-adv-x="1100" d="M48 1586l127 100l377 -682l376 682l124 -100l-429 -772v-816h-150v816z" />
<glyph unicode="Z" horiz-adv-x="1200" d="M99 92l771 1403h-718v170h900v-111l22 -18l-750 -1360h777v-181h-869v6l-6 -7z" />
<glyph unicode="[" horiz-adv-x="550" d="M101 -136v1968h75v90h273v-179h-199v-1790h199v-179h-273v90h-75z" />
<glyph unicode="\" horiz-adv-x="600" d="M-4 1920l151 45l457 -2202l-151 -44z" />
<glyph unicode="]" horiz-adv-x="550" d="M102 -55h199v1790h-199v179h273v-90h75v-1968h-75v-90h-273v179z" />
<glyph unicode="^" horiz-adv-x="1082" d="M114 1053l337 552l90 -79l90 79l337 -552l-120 -106l-307 503l-307 -503z" />
<glyph unicode="_" horiz-adv-x="600" d="M0 -95h600v-180h-600v180z" />
<glyph unicode="`" horiz-adv-x="1000" d="M352 1635l140 65l113 -355l-139 -65z" />
<glyph unicode="a" horiz-adv-x="1000" d="M48 441l38 120l61 91l96 80l113 28h392l-2 62l-37 102l-69 90l-77 35l-100 11l-83 -20l-79 -47l-76 -75l-22 -24l-102 132l27 30l92 89l112 66l122 30l142 -14l131 -60l110 -144l57 -160l6 -159v-665h-151v211l-31 -40l-91 -86l-88 -55l-125 -29l-126 22l-111 57l-75 81 l-43 114zM201 417l5 -55l20 -53l33 -36l70 -36l85 -16l83 15l67 38l78 64l53 92l55 -65v214h-380l-67 -16l-52 -44l-33 -49z" />
<glyph unicode="b" d="M100 0v1681h151v-676l89 111l128 78l153 7l170 -89l100 -114l81 -176l28 -160v-190l-56 -162l-89 -152l-128 -109l-141 -57l-143 29l-118 81l-74 109v-211h-151zM246 326l54 65l41 -73l67 -68l85 -56l81 -17l84 34l89 75l64 110l38 111v137l-20 115l-60 129l-63 72 l-117 61h-95l-87 -42l-107 -153l-54 65v-565z" />
<glyph unicode="c" horiz-adv-x="971" d="M52 578v166l40 156l72 152l94 93l129 73l157 16l134 -32l109 -58l95 -110l42 -69l-122 -105l-33 56l-67 76l-70 38l-96 22l-109 -10l-88 -51l-59 -57l-51 -108l-28 -110v-118l29 -174l56 -89l85 -78l74 -28l127 -9l113 37l56 54l61 103l123 -103l-73 -125l-98 -94 l-166 -54l-169 14l-117 42l-123 112l-88 141z" />
<glyph unicode="d" d="M49 471v190l24 159l79 177l99 114l170 89l153 -8l131 -78l93 -110v676h151v-1682h-151v212l-78 -110l-120 -80l-144 -29l-141 57l-128 109l-86 152zM200 506l34 -112l61 -109l89 -75l84 -34l81 17l84 56l67 67l41 74l54 -65v565l-54 -65l-107 153l-87 42h-95l-117 -62 l-63 -72l-56 -128l-16 -115v-137z" />
<glyph unicode="e" horiz-adv-x="1000" d="M47 516l1 189l40 150l71 142l139 134l150 55l110 2l138 -57l120 -99l84 -136l40 -131l15 -113l-55 -10l8 -104l-705 -28l24 -110l54 -122l71 -59l101 -45l87 -2l103 24l84 64l54 58l38 49l110 -121l-43 -57l-69 -73l-117 -90l-146 -34l-7 2h-107h-15l-144 64l-116 96 l-79 180zM198 679l2 -57l46 59l550 22l-2 17l-27 90l-56 90l-84 69l-93 39l-63 -2l-102 -37l-95 -92l-49 -96z" />
<glyph unicode="f" horiz-adv-x="650" d="M54 1031v163h200v285l59 128l117 63l119 4l67 -8l-16 -179l-57 7l-79 -3l-42 -23l-18 -35v-239h200v-163h-200v-1029h-150v1029h-200z" />
<glyph unicode="g" d="M43 645l18 212l67 183l98 129l128 90l166 19l144 -53l132 -146v198h151v-1160v-115l-28 -138l-70 -120l-90 -81l-108 -51l-131 -12l-105 22l-111 56l-85 70l-64 66l98 137l58 -60l65 -53l82 -42l69 -15l90 9l69 31l53 49l40 67l17 86v94v171l-96 -126l-124 -78h-150 l-120 39l-112 100l-76 115l-57 143zM194 649l13 -116l39 -99l53 -80l75 -67l72 -24h100l84 42l73 75l37 88l55 -65l1 91v471l-41 -50l-48 63l-87 79l-109 40l-110 -14l-80 -56l-65 -86l-48 -131z" />
<glyph unicode="h" d="M100 -1v1681h149v-683l59 83l150 108l166 12l156 -83l100 -116l65 -144l5 -103v-755h-151v753l-3 57l-38 83l-63 74l-102 54h-104l-111 -74l-77 -126l-52 64v-885h-149z" />
<glyph unicode="i" horiz-adv-x="350" d="M72 1512v102l61 71h85l60 -71v-102l-60 -73h-85zM99 4v1200h150v-1200h-150z" />
<glyph unicode="j" horiz-adv-x="375" d="M-112 -430l21 179l36 -6l44 -6l55 9l34 25l21 50v61v1359h150v-1359v-100l-53 -135l-101 -75l-104 -17l-65 9zM70 1550v102l58 71h86l59 -71v-102l-59 -73h-86z" />
<glyph unicode="k" horiz-adv-x="900" d="M102 -1v1681h151v-1084l371 618l120 -105l-254 -420l360 -598l-122 -104l-330 548l-96 -162l-49 64v-438h-151z" />
<glyph unicode="l" horiz-adv-x="350" d="M100 4v1669h150v-1669h-150z" />
<glyph unicode="m" horiz-adv-x="1550" d="M98 42v1200h149v-181l57 98l157 84l144 -4l120 -79l89 -127l104 126l145 85l158 -23l152 -104l70 -163l9 -100v-78v-734h-151v816l-4 39l-37 90l-90 63l-80 18l-78 -33l-51 -48l-59 -109l-55 65v-901h-150v355v410v44l-19 96l-49 72l-72 46l-79 12l-107 -50l-72 -140 l-52 62v-907h-149z" />
<glyph unicode="n" d="M98 43v1200h150v-181l74 91l104 78l151 13l142 -38l124 -101l77 -141l32 -144v-777h-150v753l-20 93l-47 87l-63 66l-100 30l-95 2l-84 -51l-91 -137l-54 64v-907h-150z" />
<glyph unicode="o" d="M45 680l27 177l84 175l154 152l190 49h72l121 -36l153 -96l98 -160l61 -216l-12 -217l-49 -174l-85 -139l-147 -119l-185 -42l-166 28l-130 88l-118 165l-55 192zM196 671l10 -127l39 -138l83 -115l82 -57l113 -18l131 29l99 82l57 91l34 125l9 158l-43 156l-64 103 l-106 68l-87 26h-37l-139 -36l-104 -103l-58 -121z" />
<glyph unicode="p" d="M99 -402v1679h151v-208l75 110l118 80l144 29l141 -57l129 -109l87 -152l55 -162v-190l-27 -159l-81 -177l-99 -114l-170 -89l-152 8l-130 78l-90 110v-677h-151zM247 389l54 65l108 -154l87 -42h95l117 63l64 72l57 128l19 115v137l-37 112l-64 109l-88 75l-84 34 l-81 -17l-85 -56l-67 -67l-41 -74l-54 65v-565z" />
<glyph unicode="q" d="M52 618v190l52 162l86 151l128 110l141 57l144 -29l120 -80l78 -110v208h151v-1679h-151v677l-93 -110l-131 -78l-153 -8l-170 89l-99 114l-79 177zM203 636l16 -115l56 -128l63 -72l117 -63h95l87 42l107 154l55 -65v565l-55 -65l-41 74l-67 66l-84 57l-81 17l-84 -35 l-88 -74l-61 -109l-35 -112v-137z" />
<glyph unicode="r" horiz-adv-x="700" d="M102 40v1200h149v-202l73 100l119 88l92 29l90 -9l73 -26l-41 -172l-60 20l-56 6l-60 -12l-85 -49l-59 -67l-33 -90l-53 64v-880h-149z" />
<glyph unicode="s" horiz-adv-x="950" d="M47 307l121 107l37 -60l36 -47l78 -55l88 -32l84 -11l86 11l79 31l68 53l27 42l1 44l-23 54l-36 32l-93 46l-178 41l-101 35l-64 25l-66 44l-63 88l-30 80v121l52 101l76 90l128 69l152 18l135 -18l127 -66l57 -51l29 -33l-106 -129l-21 25l-35 30l-90 47l-98 13 l-111 -13l-81 -43l-42 -50l-22 -40v-35l9 -19l32 -43l30 -21l48 -19l90 -31l186 -43l124 -60l80 -72l56 -131l-3 -150l-73 -114l-106 -82l-113 -44l-118 -14l-113 14l-119 43l-112 81l-57 73z" />
<glyph unicode="t" horiz-adv-x="650" d="M49 1053v163h200v246h150v-246h200v-163h-200v-739l9 -63l17 -33l38 -27h23l97 23l30 -176l-111 -27l-76 13l-109 60l-52 101l-16 113v755h-200z" />
<glyph unicode="u" d="M98 505v736h150v-724l10 -75l29 -70l56 -74l79 -60l63 -9l92 10l60 29l62 68l54 96l49 -65v874h150v-1200h-148l2 210l-93 -125l-101 -63l-129 -15l-112 16l-125 95l-86 111l-48 120z" />
<glyph unicode="v" horiz-adv-x="900" d="M16 1191l141 54l293 -996l293 996l141 -54l-335 -1148l-99 42l-99 -42z" />
<glyph unicode="w" horiz-adv-x="1300" d="M8 1199l145 43l196 -947l198 949l109 -32l101 30l192 -946l198 948l145 -43l-241 -1159l-102 30l-102 -30l-196 961l-200 -961l-102 30l-102 -30z" />
<glyph unicode="x" horiz-adv-x="908" d="M58 139l303 500l-299 493l121 101l271 -442l271 442l121 -101l-299 -493l303 -500l-121 -106l-275 454l-275 -454z" />
<glyph unicode="y" horiz-adv-x="900" d="M-3 -374l48 170l56 -23l41 -5l52 10l50 29l59 61l41 76l38 100l26 87l-68 -40l-325 1120l141 59l291 -1002l295 1010l141 -60l-361 -1241l-46 -120l-59 -109l-90 -94l-88 -50l-93 -17l-76 9z" />
<glyph unicode="z" horiz-adv-x="1000" d="M107 147l552 915h-508v179h612v-88l90 -78l-516 -853h564v-181h-672h-1h-6v6z" />
<glyph unicode="{" horiz-adv-x="750" d="M103 777v179h83l43 47l53 85l12 74v462l34 141l99 109l114 44h106v-178h-82l-61 -23l-45 -51l-16 -67v-452l-21 -132l-81 -132l-20 -21l2 -2l67 -67l41 -102l20 -125v-464l7 -66l31 -59l20 -24l46 -17l54 -4h38v-178h-43l-75 4l-99 36l-58 70l-58 109l-13 117v460l-13 84 l-19 46l-48 49l-39 48h-79z" />
<glyph unicode="|" horiz-adv-x="350" d="M100 -230v2148h150v-2148h-150z" />
<glyph unicode="}" horiz-adv-x="750" d="M103 -68h34l54 4l47 17l20 24l32 59l8 66v464l18 125l41 102l67 67l1 2l-18 21l-81 132l-19 132v452l-18 67l-46 51l-62 23h-78v178h102l115 -44l101 -109l35 -141v-462l10 -74l51 -85l44 -47h86v-179h-83l-38 -48l-49 -49l-18 -46l-12 -84v-460l-14 -117l-58 -109 l-59 -70l-98 -36l-77 -6h-38v180z" />
<glyph unicode="~" horiz-adv-x="1001" d="M44 718l1 69l31 173l111 91l134 27l107 -38l103 -69l88 -58l57 -24h39l32 17l30 43l22 57l5 25v37h149v-60l-12 -61l-37 -96l-68 -94l-91 -47h-94l-92 39l-101 66l-88 60l-58 20l-68 -14l-35 -29l-15 -85l-1 -53z" />
<glyph unicode="&#xa1;" horiz-adv-x="350" d="M74 1024v102l60 72h85l57 -72v-102l-57 -68h-85zM74 1024v102l60 72h85l57 -72v-102l-57 -68h-85zM103 -471v1193h146v-1193h-146zM103 -471v1193h146v-1193h-146z" />
<glyph unicode="&#xa2;" horiz-adv-x="973" d="M58 723v250l4 18l60 170l131 179l170 95l52 -3v239h104v-245l43 -2l162 -82l99 -112l49 -77l-120 -107l-40 65l-71 79l-112 56l-10 2v-834h11l100 49l57 53l56 94l122 -103l-69 -116l-91 -85l-147 -71h-39v-233h-104v234h-17l-133 42l-136 110l-86 156zM207 751l33 -130 l57 -104l91 -73l87 -28v838l-22 1l-108 -61l-95 -129l-43 -122v-192z" />
<glyph unicode="&#xa3;" horiz-adv-x="1200" d="M41 132l61 69l82 96l72 127l50 148v68l-20 134h-183v124h156l-29 119l-28 175l17 152l74 169l133 131l219 36l196 -69l135 -102l44 -54l-105 -126l-33 40l-103 77l-145 51l-146 -24l-77 -75l-48 -110l-10 -90l22 -139l40 -161h485v-124h-444v-238l-68 -197l-22 -38 l145 -25l127 -54l121 -48l88 -2l68 56l49 82l26 87v73h149v-90h-70l66 -28l-37 -124l-77 -130l-129 -106l-158 3l-145 57l-114 48l-122 22l-88 -19l-69 -41l-52 -60z" />
<glyph unicode="&#xa4;" horiz-adv-x="2000" />
<glyph unicode="&#xa5;" horiz-adv-x="1100" />
<glyph unicode="&#xa6;" horiz-adv-x="350" d="M100 -240v960h150v-960h-150zM100 960v960h150v-960h-150z" />
<glyph unicode="&#xa8;" horiz-adv-x="800" d="M100 1292v102l58 68h85l61 -68v-102l-61 -72h-85zM498 1292v102l58 68h85l59 -68v-102l-59 -72h-85z" />
<glyph unicode="&#xa9;" horiz-adv-x="1300" d="M50 752v154l52 238l84 150l106 130l111 75l147 60l11 -7h76l106 -6l182 -69l120 -103l112 -161l65 -180l28 -205l-28 -221l-76 -183l-120 -153l-145 -105l-154 -56l-179 12l-166 54l-112 98l-105 126l-84 171l-28 166l63 15h-66zM175 767l24 -142l65 -134l87 -103l86 -75 l131 -43l144 -10l118 44l118 85l95 121l59 143l22 175l-22 163l-52 143l-90 130l-92 79l-147 55l-88 5h-79l-101 -41l-85 -58l-85 -105l-65 -117l-42 -195v-120h-1zM330 791l33 165l18 68l56 57l41 46l49 42l74 30l62 5l57 -10l53 -11l52 -36l51 -51l30 -50l8 -14l-118 -83 l-7 13l-18 30l-27 28l-20 13l-28 6l-38 6l-29 -2l-66 -15l-23 -33l-24 -27l-14 -24l-7 -28l-5 -40v-52l2 -50l6 -37l13 -30l14 -23l49 -20l22 -15l32 -13l41 -2l40 4l33 18l28 27l13 25l12 23l108 -93l-7 -21l-22 -25l-63 -59l-69 -36l-70 -22l-70 4l-64 25l-46 19l-42 42 l-32 52l-42 60l-14 68l-15 46h-17z" />
<glyph unicode="&#xab;" horiz-adv-x="921" d="M68 789l60 53l-60 53l317 530l121 -104l-286 -479l290 -478l-121 -104zM411 895l318 530l121 -104l-286 -479l289 -478l-120 -104l-321 529l60 53z" />
<glyph unicode="&#xac;" horiz-adv-x="1000" d="M100 804v179h736v-85h62v-453h-149v359h-649z" />
<glyph unicode="&#xad;" horiz-adv-x="800" d="M103 777v180h594v-180h-594z" />
<glyph unicode="&#xae;" horiz-adv-x="1288" d="M46 762v152l52 238l84 150l106 130l111 75l147 60l11 -7h76l106 -6l182 -69l121 -103l112 -161l65 -180l27 -205l-27 -221l-76 -183l-120 -152l-145 -106l-155 -56l-178 12l-166 56l-113 96l-105 126l-83 171l-29 166l64 17h-67zM171 775l24 -142l66 -134l86 -103l86 -75 l132 -43l143 -8l119 42l117 85l96 121l59 143l22 175l-22 163l-52 144l-90 129l-92 79l-148 55l-88 5h-78l-101 -41l-86 -58l-85 -105l-65 -117l-43 -195v-120zM403 486v716h62h62h189l71 -20l49 -42l33 -47l27 -58l13 -84l-14 -71l-37 -70l-62 -65l85 -207l-100 -58 l-103 250h-6h-145v-244h-124zM527 865h145h32l42 6l26 26l18 36l5 22l-6 33l-13 29l-16 23l-20 17l-37 11h-176v-203z" />
<glyph unicode="&#xb0;" horiz-adv-x="700" d="M53 1208v122l40 108l80 107l102 55h127l121 -54l68 -91l51 -105l5 -177l-53 -132l-78 -86l-82 -60l-63 -6h-100l-71 50l-61 53l-66 101zM192 1227l11 -59l34 -52l40 -34l33 -23h57l23 1l41 30l48 53l26 66l-3 93l-25 54l-36 46l-64 29h-72l-49 -26l-45 -60l-19 -52v-66z " />
<glyph unicode="&#xb1;" horiz-adv-x="1000" d="M100 30v180h800v-180h-800zM100 810v180h325v360h150v-360h325v-180h-325v-360h-150v360h-325z" />
<glyph unicode="&#xb4;" horiz-adv-x="400" d="M54 1332l124 369l138 -67l-123 -369z" />
<glyph unicode="&#xb5;" horiz-adv-x="1100" />
<glyph unicode="&#xb6;" horiz-adv-x="1001" d="M47 1107v351l203 238h239h54h279v-93h75v-1821h-149v1736h-149v-1736h-149v1079h-200z" />
<glyph unicode="&#xb7;" horiz-adv-x="400" d="M1 644v201l115 138h168l115 -138v-201l-115 -140h-168z" />
<glyph unicode="&#xb8;" horiz-adv-x="522" d="M24 -237l61 101l22 -19l56 -23l49 -16l51 3l42 12l24 20l22 40l1 32l-20 37l-18 20l-54 -2l-65 -14l-44 -37l-76 79l134 316l80 -57l-89 -206l59 21l80 2l72 -41l45 -81l-2 -109l-50 -89l-56 -46l-71 -21l-77 -3l-68 22l-73 29z" />
<glyph unicode="&#xbb;" horiz-adv-x="921" d="M68 1319l120 105l321 -530l-60 -53l61 -52l-318 -531l-121 104l286 479zM411 1319l121 105l321 -530l-60 -53l60 -52l-317 -531l-121 104l286 479z" />
<glyph unicode="&#xbf;" horiz-adv-x="990" d="M46 -77l13 23v148l66 170l115 115l92 61l91 58l47 76l23 68l7 79l148 -18l-9 -104l-38 -114l-79 -126l-120 -76l-77 -51l-79 -80l-38 -98v-119l38 -97l65 -71l97 -53l113 -14l106 14l110 45l82 53l19 22l106 -126l-35 -42l-112 -72l-138 -55l-138 -19l-153 19l-140 77 l-104 114zM473 1013v102l58 72h85l59 -72v-102l-59 -69h-85z" />
<glyph unicode="&#xc0;" horiz-adv-x="1200" d="M18 42l218 720l51 170l216 760l94 -40l94 40l216 -760l51 -170l222 -718l-141 -62l-166 534h-553l-161 -534zM353 611l62 77h402l-220 790zM425 2115l140 65l113 -355l-139 -65z" />
<glyph unicode="&#xc1;" horiz-adv-x="1200" d="M18 42l218 720l51 170l216 760l94 -40l94 40l216 -760l51 -170l222 -718l-141 -62l-166 534h-553l-161 -534zM353 611l62 77h402l-220 790zM483 1812l124 369l138 -67l-123 -369z" />
<glyph unicode="&#xc2;" horiz-adv-x="1200" d="M18 42l218 720l51 170l216 760l94 -40l94 40l216 -760l51 -170l222 -718l-141 -62l-166 534h-553l-161 -534zM353 611l62 77h402l-220 790zM362 1830l180 327l50 -41l50 41l180 -327l-86 -68l-144 262l-144 -262z" />
<glyph unicode="&#xc3;" horiz-adv-x="1200" d="M-131 1699q0 256 171 256q77 0 133 -51q56 -52 124 -52t68 103h103q0 -256 -171 -256q-77 0 -133 51q-55 52 -124 52q-68 0 -68 -103h-103zM18 42l218 720l51 170l216 760l94 -40l94 40l216 -760l51 -170l222 -718l-141 -62l-166 534h-553l-161 -534zM353 611l62 77h402 l-220 790z" />
<glyph unicode="&#xc4;" horiz-adv-x="1200" d="M18 42l218 720l51 170l216 760l94 -40l94 40l216 -760l51 -170l222 -718l-141 -62l-166 534h-553l-161 -534zM294 1991v102l57 69h85l60 -69v-102l-60 -71h-85zM353 611l62 77h402l-220 790zM694 1991v102l57 69h85l60 -69v-102l-60 -71h-85z" />
<glyph unicode="&#xc5;" horiz-adv-x="1200" d="M-20 1891v77l25 68l50 66l64 35h79l76 -33l43 -58l32 -66l3 -110l-33 -83l-49 -54l-52 -37l-39 -4h-63l-44 31l-38 34l-42 62zM18 42l218 720l51 170l216 760l94 -40l94 40l216 -760l51 -170l222 -718l-141 -62l-166 534h-553l-161 -534zM67 1903l6 -36l22 -33l25 -22 l20 -13h36h15l25 19l30 34l17 40l-2 58l-16 34l-22 30l-40 18h-45l-31 -17l-28 -37l-12 -33v-42zM353 611l62 77h402l-220 790z" />
<glyph unicode="&#xc6;" horiz-adv-x="1800" d="M0 0l492 1680h1158v-180h-700v-540h600v-180h-600v-600h750v-180h-900v540h-484l-158 -540h-158zM369 720h431v780h-203z" />
<glyph unicode="&#xc7;" horiz-adv-x="1225" d="M45 943l37 262l36 143l68 123l85 107l101 95l154 67l127 11l123 -22l112 -26l104 -78l107 -116l61 -114l20 -38l-127 -94l-19 37l-50 92l-82 90l-70 52l-84 20l-101 17l-90 -8l-112 -48l-73 -70l-69 -85l-49 -88l-27 -108l-18 -123v-158l9 -148l24 -124l39 -104l46 -83 l64 -69l67 -51l98 -41l116 -8l118 16l102 58l91 94l40 86l29 59l128 -90l-28 -59l-52 -112l-127 -129l-142 -82l-112 -14l-55 -117l53 21l93 -7l54 -39l45 -81l-2 -108l-50 -89l-56 -48l-72 -21l-76 -2l-68 22l-73 30l-35 30l60 100l22 -19l57 -23l49 -15l51 1l41 12l25 22 l22 39l1 33l-20 37l-18 19l-54 -1l-65 -15l-44 -37l-76 79l74 176l-75 6l-134 55l-93 71l-86 93l-64 114l-51 135l-29 154l-10 172v62h-15z" />
<glyph unicode="&#xc8;" horiz-adv-x="1100" d="M98 90v1498h75v85h774v-170h-700v-613l55 64h546v-169h-601v-675l54 66h701v-173h-829v87h-75zM326 2115l140 65l113 -355l-139 -65z" />
<glyph unicode="&#xc9;" horiz-adv-x="1100" d="M98 90v1498h75v85h774v-170h-700v-613l55 64h546v-169h-601v-675l54 66h701v-173h-829v87h-75zM392 1812l124 369l138 -67l-123 -369z" />
<glyph unicode="&#xca;" horiz-adv-x="1100" d="M98 90v1498h75v85h774v-170h-700v-613l55 64h546v-169h-601v-675l54 66h701v-173h-829v87h-75zM312 1830l180 327l50 -41l50 41l180 -327l-86 -68l-144 262l-144 -262z" />
<glyph unicode="&#xcb;" horiz-adv-x="1100" d="M98 90v1498h75v85h774v-170h-700v-613l55 64h546v-169h-601v-675l54 66h701v-173h-829v87h-75zM241 1991v102l57 69h85l60 -69v-102l-60 -71h-85zM641 1991v102l57 69h85l60 -69v-102l-60 -71h-85z" />
<glyph unicode="&#xcc;" horiz-adv-x="350" d="M28 2115l140 65l113 -355l-139 -65zM100 3v1680h150v-1680h-150z" />
<glyph unicode="&#xcd;" horiz-adv-x="350" d="M48 1812l124 369l138 -67l-123 -369zM100 3v1680h150v-1680h-150z" />
<glyph unicode="&#xce;" horiz-adv-x="350" d="M-57 1830l180 327l50 -41l50 41l180 -327l-86 -68l-144 262l-144 -262zM100 3v1680h150v-1680h-150z" />
<glyph unicode="&#xcf;" horiz-adv-x="350" d="M-129 1991v102l57 69h85l60 -69v-102l-60 -71h-85zM100 3v1680h150v-1680h-150zM271 1991v102l57 69h85l60 -69v-102l-60 -71h-85z" />
<glyph unicode="&#xd0;" horiz-adv-x="1250" d="M-100 780v120h200v780h500q249 0 424.5 -216t175.5 -624t-175.5 -624t-424.5 -216h-500v780h-200zM250 180h350q187 0 318.5 163t131.5 497t-131.5 497t-318.5 163h-350v-600h200v-120h-200v-600z" />
<glyph unicode="&#xd1;" horiz-adv-x="1200" d="M-127 1699q0 256 171 256q77 0 133 -51q56 -52 124 -52t68 103h103q0 -256 -171 -256q-77 0 -133 51q-55 52 -124 52q-68 0 -68 -103h-103zM100 2v1670h151v-139l54 65l646 -1308v1382h149v-1670h-149v111l-55 -64l-645 1305v-1352h-151z" />
<glyph unicode="&#xd2;" horiz-adv-x="1300" d="M39 875l38 266l36 145l68 126l86 108l101 97l155 67l128 12l124 -21l112 -28l105 -79l107 -119l24 -44l64 -119l35 -145l19 -167v-255l-4 -84l-30 -158l-27 -72l3 -2l-26 -62l-2 2l-2 -4l-52 -113l-127 -133l-143 -82l-157 -21l-150 9l-135 58l-93 72l-87 95l-65 116 l-51 137l-31 157l-11 175v66h-12zM199 813l12 -151l26 -127l39 -106l48 -84l64 -71l67 -53l98 -40l117 -9l119 17l102 59l92 95l40 87l9 19l31 86l23 127l6 156v141l-16 141l-23 99l-19 38l-50 93l-83 91l-70 53l-84 21l-102 18l-91 -9l-112 -49l-74 -71l-70 -86l-49 -90 l-29 -109l-21 -128v-158zM512 2115l140 65l113 -355l-139 -65z" />
<glyph unicode="&#xd3;" horiz-adv-x="1300" d="M39 875l38 266l36 145l68 126l86 108l101 97l155 67l128 12l124 -21l112 -28l105 -79l107 -119l24 -44l64 -119l35 -145l19 -167v-255l-4 -84l-30 -158l-27 -72l3 -2l-26 -62l-2 2l-2 -4l-52 -113l-127 -133l-143 -82l-157 -21l-150 9l-135 58l-93 72l-87 95l-65 116 l-51 137l-31 157l-11 175v66h-12zM199 813l12 -151l26 -127l39 -106l48 -84l64 -71l67 -53l98 -40l117 -9l119 17l102 59l92 95l40 87l9 19l31 86l23 127l6 156v141l-16 141l-23 99l-19 38l-50 93l-83 91l-70 53l-84 21l-102 18l-91 -9l-112 -49l-74 -71l-70 -86l-49 -90 l-29 -109l-21 -128v-158zM517 1812l124 369l138 -67l-123 -369z" />
<glyph unicode="&#xd4;" horiz-adv-x="1300" d="M39 875l38 266l36 145l68 126l86 108l101 97l155 67l128 12l124 -21l112 -28l105 -79l107 -119l24 -44l64 -119l35 -145l19 -167v-255l-4 -84l-30 -158l-27 -72l3 -2l-26 -62l-2 2l-2 -4l-52 -113l-127 -133l-143 -82l-157 -21l-150 9l-135 58l-93 72l-87 95l-65 116 l-51 137l-31 157l-11 175v66h-12zM199 813l12 -151l26 -127l39 -106l48 -84l64 -71l67 -53l98 -40l117 -9l119 17l102 59l92 95l40 87l9 19l31 86l23 127l6 156v141l-16 141l-23 99l-19 38l-50 93l-83 91l-70 53l-84 21l-102 18l-91 -9l-112 -49l-74 -71l-70 -86l-49 -90 l-29 -109l-21 -128v-158zM417 1830l180 327l50 -41l50 41l180 -327l-86 -68l-144 262l-144 -262z" />
<glyph unicode="&#xd5;" horiz-adv-x="1300" d="M-28 1699q0 256 171 256q77 0 133 -51q56 -52 124 -52t68 103h103q0 -256 -171 -256q-77 0 -133 51q-55 52 -124 52q-68 0 -68 -103h-103zM39 875l38 266l36 145l68 126l86 108l101 97l155 67l128 12l124 -21l112 -28l105 -79l107 -119l24 -44l64 -119l35 -145l19 -167 v-255l-4 -84l-30 -158l-27 -72l3 -2l-26 -62l-2 2l-2 -4l-52 -113l-127 -133l-143 -82l-157 -21l-150 9l-135 58l-93 72l-87 95l-65 116l-51 137l-31 157l-11 175v66h-12zM199 813l12 -151l26 -127l39 -106l48 -84l64 -71l67 -53l98 -40l117 -9l119 17l102 59l92 95l40 87 l9 19l31 86l23 127l6 156v141l-16 141l-23 99l-19 38l-50 93l-83 91l-70 53l-84 21l-102 18l-91 -9l-112 -49l-74 -71l-70 -86l-49 -90l-29 -109l-21 -128v-158z" />
<glyph unicode="&#xd6;" horiz-adv-x="1300" d="M39 875l38 266l36 145l68 126l86 108l101 97l155 67l128 12l124 -21l112 -28l105 -79l107 -119l24 -44l64 -119l35 -145l19 -167v-255l-4 -84l-30 -158l-27 -72l3 -2l-26 -62l-2 2l-2 -4l-52 -113l-127 -133l-143 -82l-157 -21l-150 9l-135 58l-93 72l-87 95l-65 116 l-51 137l-31 157l-11 175v66h-12zM199 813l12 -151l26 -127l39 -106l48 -84l64 -71l67 -53l98 -40l117 -9l119 17l102 59l92 95l40 87l9 19l31 86l23 127l6 156v141l-16 141l-23 99l-19 38l-50 93l-83 91l-70 53l-84 21l-102 18l-91 -9l-112 -49l-74 -71l-70 -86l-49 -90 l-29 -109l-21 -128v-158zM346 1991v102l57 69h85l60 -69v-102l-60 -71h-85zM746 1991v102l57 69h85l60 -69v-102l-60 -71h-85z" />
<glyph unicode="&#xd7;" horiz-adv-x="878" d="M50 525l283 340l-283 340l106 127l283 -340l283 340l106 -127l-283 -340l283 -340l-106 -127l-283 340l-283 -340z" />
<glyph unicode="&#xd8;" horiz-adv-x="1300" />
<glyph unicode="&#xd9;" horiz-adv-x="1200" d="M98 548v1132h151v-1117l16 -119l39 -106l38 -62l58 -48l59 -37l74 -20h87l105 11l91 45l58 66l42 79l26 96l11 103v1109h149v-1121l-14 -131l-35 -134l-63 -117l-91 -104l-138 -67l-133 -16h-189v21l-34 9l-82 53l-88 72l-62 102l-53 145zM421 2115l140 65l113 -355 l-139 -65z" />
<glyph unicode="&#xda;" horiz-adv-x="1200" d="M98 548v1132h151v-1117l16 -119l39 -106l38 -62l58 -48l59 -37l74 -20h87l105 11l91 45l58 66l42 79l26 96l11 103v1109h149v-1121l-14 -131l-35 -134l-63 -117l-91 -104l-138 -67l-133 -16h-189v21l-34 9l-82 53l-88 72l-62 102l-53 145zM473 1812l124 369l138 -67 l-123 -369z" />
<glyph unicode="&#xdb;" horiz-adv-x="1200" d="M98 548v1132h151v-1117l16 -119l39 -106l38 -62l58 -48l59 -37l74 -20h87l105 11l91 45l58 66l42 79l26 96l11 103v1109h149v-1121l-14 -131l-35 -134l-63 -117l-91 -104l-138 -67l-133 -16h-189v21l-34 9l-82 53l-88 72l-62 102l-53 145zM364 1830l180 327l50 -41l50 41 l180 -327l-86 -68l-144 262l-144 -262z" />
<glyph unicode="&#xdc;" horiz-adv-x="1200" d="M98 548v1132h151v-1117l16 -119l39 -106l38 -62l58 -48l59 -37l74 -20h87l105 11l91 45l58 66l42 79l26 96l11 103v1109h149v-1121l-14 -131l-35 -134l-63 -117l-91 -104l-138 -67l-133 -16h-189v21l-34 9l-82 53l-88 72l-62 102l-53 145zM302 1991v102l57 69h85l60 -69 v-102l-60 -71h-85zM702 1991v102l57 69h85l60 -69v-102l-60 -71h-85z" />
<glyph unicode="&#xdd;" horiz-adv-x="1100" d="M48 1586l127 100l377 -682l376 682l124 -100l-429 -772v-816h-150v816zM428 1812l124 369l138 -67l-123 -369z" />
<glyph unicode="&#xde;" horiz-adv-x="1150" />
<glyph unicode="&#xdf;" />
<glyph unicode="&#xe0;" horiz-adv-x="1000" d="M48 441l38 120l61 91l96 80l113 28h392l-2 62l-37 102l-69 90l-77 35l-100 11l-83 -20l-79 -47l-76 -75l-22 -24l-102 132l27 30l92 89l112 66l122 30l142 -14l131 -60l110 -144l57 -160l6 -159v-665h-151v211l-31 -40l-91 -86l-88 -55l-125 -29l-126 22l-111 57l-75 81 l-43 114zM201 417l5 -55l20 -53l33 -36l70 -36l85 -16l83 15l67 38l78 64l53 92l55 -65v214h-380l-67 -16l-52 -44l-33 -49zM306 1635l140 65l113 -355l-139 -65z" />
<glyph unicode="&#xe1;" horiz-adv-x="1000" d="M48 441l38 120l61 91l96 80l113 28h392l-2 62l-37 102l-69 90l-77 35l-100 11l-83 -20l-79 -47l-76 -75l-22 -24l-102 132l27 30l92 89l112 66l122 30l142 -14l131 -60l110 -144l57 -160l6 -159v-665h-151v211l-31 -40l-91 -86l-88 -55l-125 -29l-126 22l-111 57l-75 81 l-43 114zM201 417l5 -55l20 -53l33 -36l70 -36l85 -16l83 15l67 38l78 64l53 92l55 -65v214h-380l-67 -16l-52 -44l-33 -49zM349 1332l124 369l138 -67l-123 -369z" />
<glyph unicode="&#xe2;" horiz-adv-x="1000" d="M48 441l38 120l61 91l96 80l113 28h392l-2 62l-37 102l-69 90l-77 35l-100 11l-83 -20l-79 -47l-76 -75l-22 -24l-102 132l27 30l92 89l112 66l122 30l142 -14l131 -60l110 -144l57 -160l6 -159v-665h-151v211l-31 -40l-91 -86l-88 -55l-125 -29l-126 22l-111 57l-75 81 l-43 114zM201 417l5 -55l20 -53l33 -36l70 -36l85 -16l83 15l67 38l78 64l53 92l55 -65v214h-380l-67 -16l-52 -44l-33 -49zM252 1470l180 327l50 -41l50 41l180 -327l-86 -68l-144 262l-144 -262z" />
<glyph unicode="&#xe3;" horiz-adv-x="1000" d="M-355 1219q0 256 171 256q77 0 133 -51q56 -52 124 -52t68 103h103q0 -256 -171 -256q-77 0 -133 51q-55 52 -124 52q-68 0 -68 -103h-103zM48 441l38 120l61 91l96 80l113 28h392l-2 62l-37 102l-69 90l-77 35l-100 11l-83 -20l-79 -47l-76 -75l-22 -24l-102 132l27 30 l92 89l112 66l122 30l142 -14l131 -60l110 -144l57 -160l6 -159v-665h-151v211l-31 -40l-91 -86l-88 -55l-125 -29l-126 22l-111 57l-75 81l-43 114zM201 417l5 -55l20 -53l33 -36l70 -36l85 -16l83 15l67 38l78 64l53 92l55 -65v214h-380l-67 -16l-52 -44l-33 -49z" />
<glyph unicode="&#xe4;" horiz-adv-x="1000" d="M48 441l38 120l61 91l96 80l113 28h392l-2 62l-37 102l-69 90l-77 35l-100 11l-83 -20l-79 -47l-76 -75l-22 -24l-102 132l27 30l92 89l112 66l122 30l142 -14l131 -60l110 -144l57 -160l6 -159v-665h-151v211l-31 -40l-91 -86l-88 -55l-125 -29l-126 22l-111 57l-75 81 l-43 114zM198 1511v102l57 69h85l60 -69v-102l-60 -71h-85zM201 417l5 -55l20 -53l33 -36l70 -36l85 -16l83 15l67 38l78 64l53 92l55 -65v214h-380l-67 -16l-52 -44l-33 -49zM598 1511v102l57 69h85l60 -69v-102l-60 -71h-85z" />
<glyph unicode="&#xe5;" horiz-adv-x="1000" d="M-244 1411v77l25 68l50 66l64 35h79l76 -33l43 -58l32 -66l3 -110l-33 -83l-49 -54l-52 -37l-39 -4h-63l-44 31l-38 34l-42 62zM-157 1423l6 -36l22 -33l25 -22l20 -13h36h15l25 19l30 34l17 40l-2 58l-16 34l-22 30l-40 18h-45l-31 -17l-28 -37l-12 -33v-42zM48 441 l38 120l61 91l96 80l113 28h392l-2 62l-37 102l-69 90l-77 35l-100 11l-83 -20l-79 -47l-76 -75l-22 -24l-102 132l27 30l92 89l112 66l122 30l142 -14l131 -60l110 -144l57 -160l6 -159v-665h-151v211l-31 -40l-91 -86l-88 -55l-125 -29l-126 22l-111 57l-75 81l-43 114z M201 417l5 -55l20 -53l33 -36l70 -36l85 -16l83 15l67 38l78 64l53 92l55 -65v214h-380l-67 -16l-52 -44l-33 -49z" />
<glyph unicode="&#xe6;" horiz-adv-x="1671" d="M56 439l38 120l61 90l95 79l112 26h390v3l-2 61l-37 101l-68 90l-77 35l-99 10l-82 -20l-79 -47l-76 -73l-22 -24l-101 132l27 29l91 89l111 66l123 28l141 -14l130 -59l108 -144l4 -9l18 34l138 135l149 55l109 1l137 -56l120 -100l83 -134l41 -130l15 -113l-53 -9v-102 l-695 -23v-7l25 -109l52 -122l70 -58l101 -46l87 -1l102 24l83 63l54 58l38 49l109 -121l-43 -56l-68 -72l-116 -90l-146 -34l-7 -1h-106v2h-14l-144 65l-115 96l-42 96l-82 -102l-100 -83l-97 -55l-126 -22l-126 22l-110 58l-75 79l-42 114zM208 415l5 -55l20 -53l33 -35 l69 -36l86 -14l82 14l67 37l77 64l77 95l33 -36v150l-5 18l-1 12h-374l-67 -16l-52 -43l-33 -49zM908 735l587 19l-2 14l-27 88l-56 90l-83 70l-93 37h-62l-101 -37l-95 -92l-48 -96z" />
<glyph unicode="&#xe7;" horiz-adv-x="971" d="M49 624v164l42 155l74 151l94 93l128 72l157 15l132 -30l109 -58l95 -108l41 -70l-121 -104l-33 55l-67 75l-69 39l-96 21l-108 -10l-88 -50l-59 -57l-52 -107l-29 -109v-119l30 -172l57 -88l85 -78l74 -27l126 -9l112 36l56 54l60 103l123 -103l-73 -124l-97 -94 l-166 -54l-37 4l-54 -127l48 26l98 -5l49 -46l45 -81l-2 -109l-50 -88l-56 -48l-72 -20l-76 -2l-68 21l-73 30l-35 30l60 101l22 -19l57 -23l49 -16l51 2l41 12l25 20l22 40l1 33l-21 36l-17 21l-54 -3l-65 -14l-44 -36l-60 79l82 194l-33 2l-117 42l-123 111l-89 141z" />
<glyph unicode="&#xe8;" horiz-adv-x="1000" d="M47 525l1 189l40 150l71 142l139 134l150 56l110 1l138 -57l120 -99l84 -136l40 -131l15 -112l-55 -11l8 -103l-705 -29l24 -109l54 -123l71 -59l101 -45l87 -1l103 24l84 63l54 58l38 49l110 -121l-43 -57l-69 -73l-117 -90l-146 -33l-7 1h-107h-15l-144 65l-116 96 l-79 180zM198 688l2 -56l46 58l550 22l-2 17l-27 90l-56 90l-84 69l-93 39l-63 -1l-102 -38l-95 -92l-49 -96zM352 1620l140 65l113 -355l-139 -65z" />
<glyph unicode="&#xe9;" horiz-adv-x="1000" d="M47 525l1 189l40 150l71 142l139 134l150 56l110 1l138 -57l120 -99l84 -136l40 -131l15 -112l-55 -11l8 -103l-705 -29l24 -109l54 -123l71 -59l101 -45l87 -1l103 24l84 63l54 58l38 49l110 -121l-43 -57l-69 -73l-117 -90l-146 -33l-7 1h-107h-15l-144 65l-116 96 l-79 180zM198 688l2 -56l46 58l550 22l-2 17l-27 90l-56 90l-84 69l-93 39l-63 -1l-102 -38l-95 -92l-49 -96zM408 1330l140 -65l113 355l-139 65zM541 1278z" />
<glyph unicode="&#xea;" horiz-adv-x="1000" d="M47 526l1 190l40 150l71 141l139 135l150 55l110 1l138 -56l120 -100l84 -136l40 -130l15 -113l-55 -11l8 -103l-705 -29l24 -109l54 -123l71 -58l101 -46l87 -1l103 24l84 63l54 58l38 49l110 -121l-43 -56l-69 -74l-117 -90l-146 -33l-7 1h-107h-15l-144 65l-116 96 l-79 180zM198 689l2 -56l46 59l550 21l-2 17l-27 90l-56 90l-84 70l-93 38l-63 -1l-102 -37l-95 -93l-49 -96zM283 1348l180 326l50 -40l51 40l180 -326l-87 -68l-144 261l-144 -261z" />
<glyph unicode="&#xeb;" horiz-adv-x="1000" d="M47 516l1 189l40 150l71 142l139 134l150 55l110 2l138 -57l120 -99l84 -136l40 -131l15 -113l-55 -10l8 -104l-705 -28l24 -110l54 -122l71 -59l101 -45l87 -2l103 24l84 64l54 58l38 49l110 -121l-43 -57l-69 -73l-117 -90l-146 -34l-7 2h-107h-15l-144 64l-116 96 l-79 180zM198 679l2 -57l46 59l550 22l-2 17l-27 90l-56 90l-84 69l-93 39l-63 -2l-102 -37l-95 -92l-49 -96zM200 1511v102l57 69h85l60 -69v-102l-60 -71h-85zM600 1511v102l57 69h85l60 -69v-102l-60 -71h-85z" />
<glyph unicode="&#xec;" horiz-adv-x="350" d="M44 1635l140 65l113 -355l-139 -65zM100 40v1200h150v-1200h-150z" />
<glyph unicode="&#xed;" horiz-adv-x="350" d="M42 1332l124 369l138 -67l-123 -369zM100 40v1200h150v-1200h-150z" />
<glyph unicode="&#xee;" horiz-adv-x="350" d="M-55 1350l180 327l50 -41l50 41l180 -327l-86 -68l-144 262l-144 -262zM100 40v1200h150v-1200h-150z" />
<glyph unicode="&#xef;" horiz-adv-x="350" d="M-126 1511v102l57 69h85l60 -69v-102l-60 -71h-85zM100 40v1200h150v-1200h-150zM274 1511v102l57 69h85l60 -69v-102l-60 -71h-85z" />
<glyph unicode="&#xf0;" />
<glyph unicode="&#xf1;" d="M-277 1219q0 256 171 256q77 0 133 -51q56 -52 124 -52t68 103h103q0 -256 -171 -256q-77 0 -133 51q-55 52 -124 52q-68 0 -68 -103h-103zM98 43v1200h150v-181l74 91l104 78l151 13l142 -38l124 -101l77 -141l32 -144v-777h-150v753l-20 93l-47 87l-63 66l-100 30 l-95 2l-84 -51l-91 -137l-54 64v-907h-150z" />
<glyph unicode="&#xf2;" d="M45 680l27 177l84 175l154 152l190 49h72l121 -36l153 -96l98 -160l61 -216l-12 -217l-49 -174l-85 -139l-147 -119l-185 -42l-166 28l-130 88l-118 165l-55 192zM196 671l10 -127l39 -138l83 -115l82 -57l113 -18l131 29l99 82l57 91l34 125l9 158l-43 156l-64 103 l-106 68l-87 26h-37l-139 -36l-104 -103l-58 -121zM361 1635l140 65l113 -355l-139 -65z" />
<glyph unicode="&#xf3;" d="M45 680l27 177l84 175l154 152l190 49h72l121 -36l153 -96l98 -160l61 -216l-12 -217l-49 -174l-85 -139l-147 -119l-185 -42l-166 28l-130 88l-118 165l-55 192zM196 671l10 -127l39 -138l83 -115l82 -57l113 -18l131 29l99 82l57 91l34 125l9 158l-43 156l-64 103 l-106 68l-87 26h-37l-139 -36l-104 -103l-58 -121zM419 1332l124 369l138 -67l-123 -369z" />
<glyph unicode="&#xf4;" d="M45 680l27 177l84 175l154 152l190 49h72l121 -36l153 -96l98 -160l61 -216l-12 -217l-49 -174l-85 -139l-147 -119l-185 -42l-166 28l-130 88l-118 165l-55 192zM196 671l10 -127l39 -138l83 -115l82 -57l113 -18l131 29l99 82l57 91l34 125l9 158l-43 156l-64 103 l-106 68l-87 26h-37l-139 -36l-104 -103l-58 -121zM271 1350l180 327l50 -41l50 41l180 -327l-86 -68l-144 262l-144 -262z" />
<glyph unicode="&#xf5;" d="M-275 1219q0 256 171 256q77 0 133 -51q56 -52 124 -52t68 103h103q0 -256 -171 -256q-77 0 -133 51q-55 52 -124 52q-68 0 -68 -103h-103zM45 680l27 177l84 175l154 152l190 49h72l121 -36l153 -96l98 -160l61 -216l-12 -217l-49 -174l-85 -139l-147 -119l-185 -42 l-166 28l-130 88l-118 165l-55 192zM196 671l10 -127l39 -138l83 -115l82 -57l113 -18l131 29l99 82l57 91l34 125l9 158l-43 156l-64 103l-106 68l-87 26h-37l-139 -36l-104 -103l-58 -121z" />
<glyph unicode="&#xf6;" d="M45 680l27 177l84 175l154 152l190 49h72l121 -36l153 -96l98 -160l61 -216l-12 -217l-49 -174l-85 -139l-147 -119l-185 -42l-166 28l-130 88l-118 165l-55 192zM196 671l10 -127l39 -138l83 -115l82 -57l113 -18l131 29l99 82l57 91l34 125l9 158l-43 156l-64 103 l-106 68l-87 26h-37l-139 -36l-104 -103l-58 -121zM197 1511v102l57 69h85l60 -69v-102l-60 -71h-85zM597 1511v102l57 69h85l60 -69v-102l-60 -71h-85z" />
<glyph unicode="&#xf7;" horiz-adv-x="1000" d="M103 775v179h794v-179h-794zM397 364v102l57 69h85l60 -69v-102l-60 -72h-85zM397 1264v102l57 68h85l60 -68v-102l-60 -72h-85z" />
<glyph unicode="&#xf8;" />
<glyph unicode="&#xf9;" d="M98 505v736h150v-724l10 -75l29 -70l56 -74l79 -60l63 -9l92 10l60 29l62 68l54 96l49 -65v874h150v-1200h-148l2 210l-93 -125l-101 -63l-129 -15l-112 16l-125 95l-86 111l-48 120zM363 1635l140 65l113 -355l-139 -65z" />
<glyph unicode="&#xfa;" d="M98 505v736h150v-724l10 -75l29 -70l56 -74l79 -60l63 -9l92 10l60 29l62 68l54 96l49 -65v874h150v-1200h-148l2 210l-93 -125l-101 -63l-129 -15l-112 16l-125 95l-86 111l-48 120zM394 1332l124 369l138 -67l-123 -369z" />
<glyph unicode="&#xfb;" d="M98 505v736h150v-724l10 -75l29 -70l56 -74l79 -60l63 -9l92 10l60 29l62 68l54 96l49 -65v874h150v-1200h-148l2 210l-93 -125l-101 -63l-129 -15l-112 16l-125 95l-86 111l-48 120zM288 1350l180 327l50 -41l50 41l180 -327l-86 -68l-144 262l-144 -262z" />
<glyph unicode="&#xfc;" d="M98 505v736h150v-724l10 -75l29 -70l56 -74l79 -60l63 -9l92 10l60 29l62 68l54 96l49 -65v874h150v-1200h-148l2 210l-93 -125l-101 -63l-129 -15l-112 16l-125 95l-86 111l-48 120zM211 1511v102l57 69h85l60 -69v-102l-60 -71h-85zM611 1511v102l57 69h85l60 -69v-102 l-60 -71h-85z" />
<glyph unicode="&#xfd;" horiz-adv-x="900" d="M-3 -374l48 170l56 -23l41 -5l52 10l50 29l59 61l41 76l38 100l26 87l-68 -40l-325 1120l141 59l291 -1002l295 1010l141 -60l-361 -1241l-46 -120l-59 -109l-90 -94l-88 -50l-93 -17l-76 9zM310 1332l124 369l138 -67l-123 -369z" />
<glyph unicode="&#xfe;" />
<glyph unicode="&#xff;" horiz-adv-x="900" d="M-3 -374l48 170l56 -23l41 -5l52 10l50 29l59 61l41 76l38 100l26 87l-68 -40l-325 1120l141 59l291 -1002l295 1010l141 -60l-361 -1241l-46 -120l-59 -109l-90 -94l-88 -50l-93 -17l-76 9zM148 1511v102l57 69h85l60 -69v-102l-60 -71h-85zM548 1511v102l57 69h85 l60 -69v-102l-60 -71h-85z" />
<glyph unicode="&#x152;" horiz-adv-x="2100" d="M47 877l38 260l36 142l67 123l86 107l100 95l154 66l127 12l123 -22l112 -27l104 -77l106 -118l-1 -1v147h74v81h771v-171h-696v-542h596v-174h-596v-603h751v-174h-826v90h-74v146l-124 -128l-141 -82l-155 -21l-150 10l-134 57l-92 71l-86 92l-65 114l-50 134l-30 155 l-11 172v66h-14zM210 814l9 -148l25 -124l39 -104l47 -83l64 -69l67 -51l98 -41l116 -8l117 15l102 59l91 94l40 85l9 19l31 84l23 124l7 153v139l-17 137l-23 99l-19 37l-49 91l-82 90l-70 52l-84 20l-101 18l-90 -8l-112 -48l-74 -70l-69 -86l-48 -88l-28 -107l-19 -125 v-156z" />
<glyph unicode="&#x153;" horiz-adv-x="1767" d="M49 684l27 176l83 174l153 150l189 48h71l121 -36l152 -94l82 -132l37 75l138 134l150 54l109 1l137 -55l120 -101l83 -134l40 -130l14 -111l-54 -11l4 -91l-696 -46l23 -103l53 -122l71 -58l100 -46l87 -1l103 24l82 63l54 57l38 49l110 -121l-43 -56l-68 -72l-117 -90 l-145 -35l-7 -1h-107v5h-14l-143 64l-116 96l-45 102l-67 -109l-146 -117l-184 -41l-165 26l-130 88l-117 164l-54 191zM199 675l10 -126l39 -138l82 -114l81 -55l113 -18l130 29l99 79l56 91l34 125l9 157l-43 155l-64 102l-105 66l-86 25h-37l-138 -35l-104 -100l-57 -120 zM1005 734l590 38l-27 87l-56 90l-82 68l-93 39l-63 -2l-101 -37l-95 -92l-48 -95z" />
<glyph unicode="&#x178;" horiz-adv-x="1100" d="M-226 1991v102l57 69h85l60 -69v-102l-60 -71h-85zM48 1586l127 100l377 -682l376 682l124 -100l-429 -772v-816h-150v816zM174 1991v102l57 69h85l60 -69v-102l-60 -71h-85z" />
<glyph unicode="&#x2c6;" horiz-adv-x="600" d="M70 1350l180 327l50 -41l50 41l180 -327l-86 -68l-144 262l-144 -262z" />
<glyph unicode="&#x2dc;" horiz-adv-x="699" d="M50 1219q0 256 171 256q77 0 133 -51q56 -52 124 -52t68 103h103q0 -256 -171 -256q-77 0 -133 51q-55 52 -124 52q-68 0 -68 -103h-103z" />
<glyph unicode="&#x2000;" horiz-adv-x="1090" />
<glyph unicode="&#x2001;" horiz-adv-x="2181" />
<glyph unicode="&#x2002;" horiz-adv-x="1090" />
<glyph unicode="&#x2003;" horiz-adv-x="2181" />
<glyph unicode="&#x2004;" horiz-adv-x="727" />
<glyph unicode="&#x2005;" horiz-adv-x="545" />
<glyph unicode="&#x2006;" horiz-adv-x="363" />
<glyph unicode="&#x2007;" horiz-adv-x="363" />
<glyph unicode="&#x2008;" horiz-adv-x="272" />
<glyph unicode="&#x2009;" horiz-adv-x="436" />
<glyph unicode="&#x200a;" horiz-adv-x="121" />
<glyph unicode="&#x2010;" horiz-adv-x="800" d="M103 777v180h594v-180h-594z" />
<glyph unicode="&#x2011;" horiz-adv-x="800" d="M103 777v180h594v-180h-594z" />
<glyph unicode="&#x2012;" horiz-adv-x="800" d="M103 777v180h594v-180h-594z" />
<glyph unicode="&#x2013;" horiz-adv-x="800" d="M103 777v180h594v-180h-594z" />
<glyph unicode="&#x2014;" horiz-adv-x="1200" d="M103 748v180h994v-180h-994z" />
<glyph unicode="&#x2018;" horiz-adv-x="400" d="M100 1100v240l100 240h100l-75 -240h75v-240h-200z" />
<glyph unicode="&#x2019;" horiz-adv-x="400" d="M94 1412v107l60 72h88l63 -72v-57v-50v-74h-4l-103 -253l-97 57l79 196h-26z" />
<glyph unicode="&#x201a;" horiz-adv-x="400" d="M97 212v102l57 68h85l60 -68v-55v-47v-72h-4l-99 -241l-93 54l77 187h-26z" />
<glyph unicode="&#x201c;" horiz-adv-x="700" d="M100 1100v240l100 240h100l-75 -240h75v-240h-200zM400 1100v240l100 240h100l-75 -240h75v-240h-200z" />
<glyph unicode="&#x201d;" horiz-adv-x="700" d="M97 1652v102l57 68h85l60 -68v-55v-47v-72h-4l-99 -241l-93 54l77 187h-26zM397 1652v102l57 68h85l60 -68v-55v-47v-72h-4l-99 -241l-93 54l77 187h-26z" />
<glyph unicode="&#x201e;" horiz-adv-x="700" d="M97 212v102l57 68h85l60 -68v-55v-47v-72h-4l-99 -241l-93 54l77 187h-26zM397 212v102l57 68h85l60 -68v-55v-47v-72h-4l-99 -241l-93 54l77 187h-26z" />
<glyph unicode="&#x2022;" horiz-adv-x="600" d="M98 744v200l116 138h167l115 -138v-200l-115 -141h-167z" />
<glyph unicode="&#x2026;" horiz-adv-x="1200" d="M99 191v102l57 69h85l60 -69v-102l-60 -71h-85zM499 191v102l57 69h85l60 -69v-102l-60 -71h-85zM899 191v102l57 69h85l60 -69v-102l-60 -71h-85z" />
<glyph unicode="&#x202f;" horiz-adv-x="436" />
<glyph unicode="&#x2039;" horiz-adv-x="571" d="M65 757l60 53l-60 53l321 529l120 -106l-289 -477l286 -478l-121 -104z" />
<glyph unicode="&#x203a;" horiz-adv-x="571" d="M65 1286l120 106l321 -529l-60 -53l60 -53l-317 -530l-121 104l286 478z" />
<glyph unicode="&#x205f;" horiz-adv-x="545" />
<glyph unicode="&#x20ac;" horiz-adv-x="1475" d="M76 634v122h202l-3 26v66l1 20h-12h-188v125h206l17 114l36 143l67 123l86 106l100 95l154 67l127 11l123 -22l113 -26l104 -78l106 -117l61 -111l-125 -99l-50 94l-82 90l-70 51l-84 21l-101 17l-90 -8l-112 -49l-74 -69l-69 -86l-48 -87l-27 -107l-11 -73h558v-125 h-567v-83l4 -29h518v-122h-511l23 -121l39 -105l47 -82l64 -70l67 -52l98 -40l116 -8l117 16l102 58l91 93l40 87l29 58l131 -86l-27 -60l-2 1l-2 -3l-52 -112l-126 -130l-142 -80l-155 -22l-150 11l-134 55l-92 71l-86 94l-64 114l-51 134l-29 155l-2 24h-209z" />
<glyph unicode="&#x2122;" d="M50 1470v120h400v-120h-150v-480h-100v480h-150zM500 990v600h150l100 -444l100 444h150v-600h-100v444l-100 -444h-100l-100 444v-444h-100z" />
<glyph unicode="&#x25fc;" horiz-adv-x="1235" d="M0 0v1235h1235v-1235h-1235z" />
</font>
</defs>
</svg>
